<?xml version="1.0" encoding="utf-8"?>
<!-- Generator: Adobe Illustrator 15.0.0, SVG Export Plug-In . SVG Version: 6.00 Build 0)  -->
<!DOCTYPE svg PUBLIC "-//W3C//DTD SVG 1.1//EN" "http://www.w3.org/Graphics/SVG/1.1/DTD/svg11.dtd">
<svg version="1.1" id="Layer_1" xmlns="http://www.w3.org/2000/svg" xmlns:xlink="http://www.w3.org/1999/xlink" x="0px" y="0px"
	 width="792px" height="612px" viewBox="0 0 792 612" enable-background="new 0 0 792 612" xml:space="preserve">
<g>
	<path d="M223.186,197.401c5.131,5.131,5.768,12.81,1.429,17.15l0,0c-4.346,4.343-12.023,3.702-17.151-1.427l-31.254-31.255
		c-5.132-5.13-5.771-12.81-1.429-17.151l0,0c4.339-4.342,12.022-3.703,17.15,1.428L223.186,197.401z"/>
	<path fill="#0094D9" stroke="#000000" stroke-width="8.4858" d="M152.239,194.244c-31.235,0-56.648-25.412-56.648-56.65
		c0-31.237,25.413-56.649,56.648-56.649c31.238,0,56.649,25.413,56.649,56.649C208.889,168.832,183.478,194.244,152.239,194.244z"/>
	<path fill="#293783" stroke="#FFFFFF" stroke-width="8.6555" d="M202.392,137.593c0,27.699-22.45,50.152-50.152,50.152
		c-27.697,0-50.149-22.453-50.149-50.152c0-27.698,22.453-50.152,50.149-50.152C179.941,87.441,202.392,109.895,202.392,137.593z"/>
	<path fill="#00A651" stroke="#FFFFFF" stroke-width="1.6971" stroke-miterlimit="10" d="M151.229,110.51
		c0,0-0.176,2.585-1.349,4.641c-1.174,2.054-3.936,3.698-4.169,4.815c-0.235,1.115-0.587,3.875-1.409,5.401
		c-0.824,1.528-1.999,2.526-2.232,3.29c-0.234,0.762-0.232,1.056-0.824,1.758c-0.585,0.704-1.996,1.412-2.463,2.937
		c-0.471,1.528-0.529,2.175-1.233,3.231c-0.705,1.058-1.704,2.816-1.762,4.697c-0.058,1.878-1.056,11.861,0,14.15
		c1.058,2.291,3.933,6.048,6.166,8.104c2.231,2.055,4.402,5.05,5.048,7.047c0.646,1.995,2.113,3.992,3.114,3.992
		c0.997,0,3.229-0.88,2.993-1.997c-0.235-1.113-1.645-3.581-1.645-5.341c0-1.763,0.646-2.351,0.822-3.172
		c0.176-0.823,0.176-1.116,0.411-1.881c0.235-0.762,2.175-2.466,2.582-3.581c0.414-1.114,0.941-2.231,2.118-3.23
		c1.17-0.997,4.167-3.464,4.402-5.46s-0.176-7.398,0.643-9.337c0.825-1.937,0.649-2.289,0.882-3.052
		c0.238-0.766,1.289-1.819,1.528-2.701c0.235-0.882,0.706-2.173,0.411-3.054c-0.292-0.88-1.409-2.995-0.706-4.581
		c0.706-1.584,4.113-5.519,3.643-8.456c-0.471-2.935-0.381-3.638,0.043-4.404c0.428-0.762,1.602-1.818,0.428-4.521
		c-1.174-2.702-1.472-2.642-2.646-2.583c-1.173,0.058-2.582-0.822-3.169-1.234c-0.59-0.41-1.819-1.409-3.467-0.469
		C157.749,106.459,155.22,109.925,151.229,110.51z"/>
	<g>
		<g>
			<path fill="#ED1C24" d="M108.456,87.607c-0.521,0.424-1.365,0.413-1.874-0.025L81.377,65.893
				c-0.509-0.438-0.488-1.129,0.048-1.535l19.564-14.814c0.536-0.406,1.221-0.247,1.522,0.354l14.9,29.683
				c0.302,0.601,0.091,1.397-0.468,1.77L108.456,87.607z"/>
			<path fill="#ED1C24" d="M94.303,104.189c-0.368,0.562-1.209,0.92-1.87,0.795l-22.726-4.296c-0.66-0.125-0.987-0.734-0.726-1.353
				l7.471-17.7c0.261-0.619,0.935-0.824,1.496-0.455l21.306,14.018c0.562,0.369,0.685,1.107,0.275,1.639L94.303,104.189z"/>
			<path fill="#ED1C24" d="M126.996,74.839c0.204,0.641,0.889,0.981,1.522,0.757l8.129-2.49c0.65-0.17,1.23-0.857,1.289-1.527
				l2.129-24.368c0.059-0.669-0.439-1.148-1.106-1.065l-19.068,2.4c-0.667,0.083-1.045,0.676-0.842,1.317L126.996,74.839z"/>
		</g>
		<g>
			<path d="M72.65,117.745c0.122-0.601,0.699-0.965,1.3-0.844l14.042,2.833c0.577,0.116,0.941,0.695,0.824,1.272l-2.623,13.003
				c-0.117,0.577-0.677,0.97-1.277,0.848l-1.063-0.214c-0.6-0.122-0.964-0.699-0.848-1.276l1.98-9.816l-3.973-0.801l-1.613,7.991
				c-0.116,0.578-0.699,0.964-1.277,0.848l-1.062-0.215c-0.577-0.116-0.964-0.699-0.848-1.276l1.612-7.992l-4.734-0.955
				c-0.601-0.121-0.992-0.682-0.872-1.282L72.65,117.745z"/>
			<path d="M86.884,143.652c0.405,5.875-1.83,9.405-7.94,9.826c-6.11,0.422-8.81-2.77-9.213-8.645
				c-0.405-5.875,1.83-9.405,7.94-9.826C83.781,134.586,86.479,137.777,86.884,143.652z M77.969,139.332
				c-3.525,0.242-5.379,1.764-5.137,5.288c0.243,3.525,2.29,4.778,5.814,4.535s5.379-1.765,5.136-5.289
				C83.539,140.34,81.494,139.088,77.969,139.332z"/>
			<path d="M79.158,161.214l-4.651,1.686c-0.554,0.201-1.179-0.072-1.387-0.648l-0.739-2.037c-0.201-0.555,0.095-1.188,0.649-1.389
				l13.466-4.881c0.576-0.209,1.178,0.073,1.379,0.627l3.236,8.926c1.172,3.232,0.187,6.321-2.87,7.429
				c-2.391,0.867-4.165-0.569-5.419-2.646c-0.003,1.028-0.537,1.974-1.611,3.365l-2.408,3.104c-0.447,0.562-0.946,0.568-1.155-0.008
				l-0.94-2.591c-0.2-0.554-0.031-1.468,0.417-2.03l2.212-2.882c0.664-0.867,1.283-1.993,0.776-3.389L79.158,161.214z
				 M85.935,158.758l-3.72,1.349l1.669,4.606c0.45,1.24,1.463,2.652,2.881,2.138c1.417-0.514,1.29-2.246,0.84-3.486L85.935,158.758z
				"/>
			<path d="M86.094,187.632c-0.359-0.466-0.36-1.239-0.041-1.752l6.488-10.107l-8.904,6.854c-0.485,0.373-1.164,0.302-1.538-0.184
				l-1.265-1.643c-0.374-0.485-0.269-1.16,0.217-1.534l11.312-8.707c0.485-0.374,1.165-0.303,1.523,0.164l2.86,3.714
				c0.373,0.485,0.341,1.254-0.01,1.763l-5.715,8.68l9.853-3.304c0.582-0.21,1.332-0.045,1.706,0.44l2.86,3.714
				c0.358,0.467,0.254,1.142-0.231,1.516l-11.312,8.708c-0.485,0.373-1.163,0.302-1.538-0.184l-1.264-1.643
				c-0.374-0.485-0.269-1.16,0.215-1.534l8.904-6.854l-11.432,3.688c-0.576,0.177-1.323-0.021-1.683-0.487L86.094,187.632z"/>
			<path d="M114.46,191.701c4.872,3.311,6.268,7.249,2.827,12.316s-7.619,5.221-12.492,1.911c-4.873-3.31-6.269-7.249-2.827-12.317
				C105.41,188.544,109.587,188.391,114.46,191.701z M105.554,196.048c-1.985,2.923-1.934,5.321,0.988,7.308
				c2.925,1.985,5.173,1.148,7.159-1.774c1.985-2.924,1.935-5.322-0.989-7.309C109.789,192.288,107.539,193.125,105.554,196.048z"/>
			<path d="M129.039,199.327l2.756,0.961c2.803,0.977,5.238,3.646,4.41,6.024c-0.349,1.001-1.242,0.914-1.531,0.813l-1.29-0.449
				c-0.623-0.217-1.011-0.677-1.111-1.534c-0.092-0.88-0.813-1.53-1.925-1.918l-3.269-1.139c-1.333-0.466-2.075-0.2-2.347,0.578
				c-0.898,2.58,11.384,5.189,9.361,10.992c-0.93,2.669-3.137,3.994-8.474,2.135l-3.291-1.147c-2.802-0.977-5.238-3.646-4.408-6.025
				c0.349-1,1.241-0.914,1.53-0.812l1.29,0.449c0.623,0.217,1.01,0.676,1.11,1.534c0.093,0.88,0.813,1.53,1.926,1.918l3.802,1.325
				c1.333,0.465,2.075,0.199,2.347-0.579c0.898-2.579-11.367-5.234-9.36-10.992C121.494,198.792,123.702,197.466,129.039,199.327z"
				/>
			<path d="M139.883,207.056c1.158-3.594,4.517-4.241,7.855-4.063l6.185,0.327c0.565,0.03,0.962,0.547,0.932,1.111l-0.761,14.345
				c-0.03,0.588-0.55,1.032-1.137,1.001l-2.164-0.114c-0.612-0.033-1.058-0.528-1.024-1.14l0.153-2.893l-8.16-0.433l-0.93,2.852
				c-0.197,0.603-0.809,1.042-1.421,1.01l-2.258-0.12c-0.611-0.033-0.939-0.521-0.743-1.101L139.883,207.056z M142.782,211.998
				l7.314,0.388l0.317-5.997l-3.269-0.173c-1.482-0.079-2.705,0.752-3.157,2.144L142.782,211.998z"/>
		</g>
		<g>
			<path d="M165.971,66.857l-7.84-1.104l-0.823,5.856c-0.084,0.582-0.639,0.98-1.222,0.897l-2.123-0.3
				c-0.605-0.085-1.026-0.643-0.944-1.226l1.998-14.182c0.087-0.607,0.642-1.005,1.249-0.92l2.122,0.3
				c0.583,0.082,1.008,0.617,0.922,1.224l-0.724,5.13l7.837,1.106l0.723-5.131c0.087-0.606,0.645-1.004,1.225-0.922l2.123,0.3
				c0.607,0.086,1.031,0.621,0.946,1.227l-2.002,14.183c-0.082,0.582-0.639,1.004-1.246,0.917l-2.123-0.3
				c-0.583-0.081-1.007-0.616-0.925-1.2L165.971,66.857z"/>
			<path d="M176.752,61.055c0.203-0.576,0.823-0.856,1.379-0.659l2.022,0.713c0.576,0.205,0.887,0.813,0.683,1.391l-4.773,13.497
				c-0.196,0.555-0.825,0.856-1.402,0.653l-2.022-0.714c-0.555-0.196-0.863-0.804-0.667-1.36L176.752,61.055z"/>
			<path d="M193.094,67.209c5.773,3.419,6.875,7.107,4.008,11.952c-2.866,4.843-6.632,5.653-12.405,2.234l-5.532-3.274
				c-0.509-0.301-0.692-0.959-0.395-1.465l7.294-12.32c0.313-0.527,0.97-0.713,1.498-0.4L193.094,67.209z M188.7,68.386
				l-5.085,8.594l2.635,1.56c3.63,2.147,5.322,1.454,7.123-1.585c1.799-3.04,1.59-4.86-2.037-7.009L188.7,68.386z"/>
			<path d="M211.035,81.374c4.6,4.891,4.631,8.739,0.53,12.598c-4.101,3.857-7.942,3.589-12.541-1.301l-4.406-4.684
				c-0.403-0.428-0.397-1.112,0.029-1.517l10.435-9.812c0.445-0.419,1.127-0.414,1.548,0.032L211.035,81.374z M206.488,81.285
				l-7.273,6.841l2.097,2.231c2.888,3.071,4.712,2.878,7.283,0.457c2.575-2.421,2.879-4.227-0.008-7.299L206.488,81.285z"/>
			<path d="M226.967,107.351l-0.96,0.507c-0.541,0.284-1.188,0.066-1.465-0.455l-4.665-8.855l-2.958,1.559l4.017,7.625
				c0.275,0.521,0.067,1.189-0.452,1.463l-0.956,0.507c-0.521,0.274-1.19,0.067-1.466-0.455l-4.019-7.625l-3.002,1.582l4.657,8.833
				c0.276,0.521,0.077,1.158-0.442,1.431l-0.979,0.516c-0.521,0.275-1.179,0.088-1.465-0.453l-6.159-11.688
				c-0.285-0.54-0.068-1.187,0.473-1.474l12.668-6.674c0.522-0.276,1.168-0.059,1.443,0.461l6.181,11.731
				C227.693,106.409,227.507,107.065,226.967,107.351z"/>
			<path d="M213.994,116.646c-0.125-0.576,0.256-1.164,0.831-1.287l13.998-3.014c0.576-0.125,1.158,0.233,1.283,0.808l0.714,3.316
				c0.118,0.553-0.272,1.31-0.726,1.77l-8.993,9.043l10.476-2.257c0.575-0.124,1.143,0.26,1.266,0.837l0.416,1.933
				c0.128,0.6-0.233,1.159-0.832,1.288l-13.998,3.013c-0.576,0.125-1.157-0.232-1.289-0.832l-0.802-3.728
				c-0.128-0.601,0.21-1.371,0.706-1.863l8.31-8.294l-9.646,2.077c-0.575,0.123-1.165-0.256-1.288-0.832L213.994,116.646z"/>
		</g>
	</g>
</g>
<g>
	<path d="M454.573,197.401c5.131,5.131,5.768,12.81,1.429,17.15l0,0c-4.346,4.343-12.023,3.702-17.151-1.427l-31.254-31.255
		c-5.132-5.13-5.771-12.81-1.429-17.151l0,0c4.339-4.342,12.022-3.703,17.15,1.428L454.573,197.401z"/>
	<path stroke="#000000" stroke-width="8.4858" d="M383.627,194.244c-31.235,0-56.648-25.412-56.648-56.65
		c0-31.237,25.413-56.649,56.648-56.649c31.238,0,56.649,25.413,56.649,56.649C440.276,168.832,414.865,194.244,383.627,194.244z"/>
	<path stroke="#FFFFFF" stroke-width="8.6555" d="M433.779,137.593c0,27.699-22.45,50.152-50.152,50.152
		c-27.697,0-50.149-22.453-50.149-50.152c0-27.698,22.453-50.152,50.149-50.152C411.329,87.441,433.779,109.895,433.779,137.593z"/>
	<path stroke="#FFFFFF" stroke-width="1.6971" stroke-miterlimit="10" d="M382.616,110.51c0,0-0.176,2.585-1.349,4.641
		c-1.174,2.054-3.936,3.698-4.169,4.815c-0.235,1.115-0.587,3.875-1.409,5.401c-0.824,1.528-1.999,2.526-2.232,3.29
		c-0.234,0.762-0.232,1.056-0.824,1.758c-0.585,0.704-1.996,1.412-2.463,2.937c-0.471,1.528-0.529,2.175-1.233,3.231
		c-0.705,1.058-1.704,2.816-1.762,4.697c-0.058,1.878-1.056,11.861,0,14.15c1.058,2.291,3.933,6.048,6.166,8.104
		c2.231,2.055,4.402,5.05,5.048,7.047c0.646,1.995,2.113,3.992,3.114,3.992c0.997,0,3.229-0.88,2.993-1.997
		c-0.235-1.113-1.645-3.581-1.645-5.341c0-1.763,0.646-2.351,0.822-3.172c0.176-0.823,0.176-1.116,0.411-1.881
		c0.235-0.762,2.175-2.466,2.582-3.581c0.414-1.114,0.941-2.231,2.118-3.23c1.17-0.997,4.167-3.464,4.402-5.46
		s-0.176-7.398,0.643-9.337c0.825-1.937,0.649-2.289,0.882-3.052c0.238-0.766,1.289-1.819,1.528-2.701
		c0.235-0.882,0.706-2.173,0.411-3.054c-0.292-0.88-1.409-2.995-0.706-4.581c0.706-1.584,4.113-5.519,3.643-8.456
		c-0.471-2.935-0.381-3.638,0.043-4.404c0.428-0.762,1.602-1.818,0.428-4.521c-1.174-2.702-1.472-2.642-2.646-2.583
		c-1.173,0.058-2.582-0.822-3.169-1.234c-0.59-0.41-1.819-1.409-3.467-0.469C389.137,106.459,386.607,109.925,382.616,110.51z"/>
	<g>
		<g>
			<path d="M339.843,87.607c-0.521,0.424-1.365,0.413-1.874-0.025l-25.204-21.689c-0.509-0.438-0.488-1.129,0.048-1.535
				l19.564-14.814c0.536-0.406,1.221-0.247,1.522,0.354l14.9,29.683c0.302,0.601,0.091,1.397-0.468,1.77L339.843,87.607z"/>
			<path d="M325.691,104.189c-0.368,0.562-1.209,0.92-1.87,0.795l-22.726-4.296c-0.66-0.125-0.987-0.734-0.726-1.353l7.471-17.7
				c0.261-0.619,0.935-0.824,1.496-0.455l21.306,14.018c0.562,0.369,0.685,1.107,0.275,1.639L325.691,104.189z"/>
			<path d="M358.384,74.839c0.204,0.641,0.889,0.981,1.522,0.757l8.129-2.49c0.65-0.17,1.23-0.857,1.289-1.527l2.129-24.368
				c0.059-0.669-0.439-1.148-1.106-1.065l-19.068,2.4c-0.667,0.083-1.045,0.676-0.842,1.317L358.384,74.839z"/>
		</g>
		<g>
			<path d="M304.038,117.745c0.122-0.601,0.699-0.965,1.3-0.844l14.042,2.833c0.577,0.116,0.941,0.695,0.824,1.272l-2.623,13.003
				c-0.117,0.577-0.677,0.97-1.277,0.848l-1.063-0.214c-0.6-0.122-0.964-0.699-0.848-1.276l1.98-9.816l-3.973-0.801l-1.613,7.991
				c-0.116,0.578-0.699,0.964-1.277,0.848l-1.062-0.215c-0.577-0.116-0.964-0.699-0.848-1.276l1.612-7.992l-4.734-0.955
				c-0.601-0.121-0.992-0.682-0.872-1.282L304.038,117.745z"/>
			<path d="M318.271,143.652c0.405,5.875-1.83,9.405-7.94,9.826c-6.11,0.422-8.81-2.77-9.213-8.645
				c-0.405-5.875,1.83-9.405,7.94-9.826C315.168,134.586,317.867,137.777,318.271,143.652z M309.356,139.332
				c-3.525,0.242-5.379,1.764-5.137,5.288c0.243,3.525,2.29,4.778,5.814,4.535s5.379-1.765,5.136-5.289
				C314.927,140.34,312.881,139.088,309.356,139.332z"/>
			<path d="M310.546,161.214l-4.651,1.686c-0.554,0.201-1.179-0.072-1.387-0.648l-0.739-2.037c-0.201-0.555,0.095-1.188,0.649-1.389
				l13.466-4.881c0.576-0.209,1.178,0.073,1.379,0.627l3.236,8.926c1.172,3.232,0.187,6.321-2.87,7.429
				c-2.391,0.867-4.165-0.569-5.419-2.646c-0.003,1.028-0.537,1.974-1.611,3.365l-2.408,3.104c-0.447,0.562-0.946,0.568-1.155-0.008
				l-0.94-2.591c-0.2-0.554-0.031-1.468,0.417-2.03l2.212-2.882c0.664-0.867,1.283-1.993,0.776-3.389L310.546,161.214z
				 M317.323,158.758l-3.72,1.349l1.669,4.606c0.45,1.24,1.463,2.652,2.881,2.138c1.417-0.514,1.29-2.246,0.84-3.486
				L317.323,158.758z"/>
			<path d="M317.481,187.632c-0.359-0.466-0.36-1.239-0.041-1.752l6.488-10.107l-8.904,6.854c-0.485,0.373-1.164,0.302-1.538-0.184
				l-1.265-1.643c-0.374-0.485-0.269-1.16,0.217-1.534l11.312-8.707c0.485-0.374,1.165-0.303,1.523,0.164l2.86,3.714
				c0.373,0.485,0.341,1.254-0.01,1.763l-5.715,8.68l9.853-3.304c0.582-0.21,1.332-0.045,1.706,0.44l2.86,3.714
				c0.358,0.467,0.254,1.142-0.231,1.516l-11.312,8.708c-0.485,0.373-1.163,0.302-1.538-0.184l-1.264-1.643
				c-0.374-0.485-0.269-1.16,0.215-1.534l8.904-6.854l-11.432,3.688c-0.576,0.177-1.323-0.021-1.683-0.487L317.481,187.632z"/>
			<path d="M345.848,191.701c4.872,3.311,6.268,7.249,2.827,12.316s-7.619,5.221-12.492,1.911c-4.873-3.31-6.269-7.249-2.827-12.317
				C336.797,188.544,340.975,188.391,345.848,191.701z M336.941,196.048c-1.985,2.923-1.934,5.321,0.988,7.308
				c2.925,1.985,5.173,1.148,7.159-1.774c1.985-2.924,1.935-5.322-0.989-7.309C341.177,192.288,338.927,193.125,336.941,196.048z"/>
			<path d="M360.426,199.327l2.756,0.961c2.803,0.977,5.238,3.646,4.41,6.024c-0.349,1.001-1.242,0.914-1.531,0.813l-1.29-0.449
				c-0.623-0.217-1.011-0.677-1.111-1.534c-0.092-0.88-0.813-1.53-1.925-1.918l-3.269-1.139c-1.333-0.466-2.075-0.2-2.347,0.578
				c-0.898,2.58,11.384,5.189,9.361,10.992c-0.93,2.669-3.137,3.994-8.474,2.135l-3.291-1.147c-2.802-0.977-5.238-3.646-4.408-6.025
				c0.349-1,1.241-0.914,1.53-0.812l1.29,0.449c0.623,0.217,1.01,0.676,1.11,1.534c0.093,0.88,0.813,1.53,1.926,1.918l3.802,1.325
				c1.333,0.465,2.075,0.199,2.347-0.579c0.898-2.579-11.367-5.234-9.36-10.992C352.882,198.792,355.09,197.466,360.426,199.327z"/>
			<path d="M371.271,207.056c1.158-3.594,4.517-4.241,7.855-4.063l6.185,0.327c0.565,0.03,0.962,0.547,0.932,1.111l-0.761,14.345
				c-0.03,0.588-0.55,1.032-1.137,1.001l-2.164-0.114c-0.612-0.033-1.058-0.528-1.024-1.14l0.153-2.893l-8.16-0.433l-0.93,2.852
				c-0.197,0.603-0.809,1.042-1.421,1.01l-2.258-0.12c-0.611-0.033-0.939-0.521-0.743-1.101L371.271,207.056z M374.169,211.998
				l7.314,0.388l0.317-5.997l-3.269-0.173c-1.482-0.079-2.705,0.752-3.157,2.144L374.169,211.998z"/>
		</g>
		<g>
			<path d="M397.358,66.857l-7.84-1.104l-0.823,5.856c-0.084,0.582-0.639,0.98-1.222,0.897l-2.123-0.3
				c-0.605-0.085-1.026-0.643-0.944-1.226l1.998-14.182c0.087-0.607,0.642-1.005,1.249-0.92l2.122,0.3
				c0.583,0.082,1.008,0.617,0.922,1.224l-0.724,5.13l7.837,1.106l0.723-5.131c0.087-0.606,0.645-1.004,1.225-0.922l2.123,0.3
				c0.607,0.086,1.031,0.621,0.946,1.227l-2.002,14.183c-0.082,0.582-0.639,1.004-1.246,0.917l-2.123-0.3
				c-0.583-0.081-1.007-0.616-0.925-1.2L397.358,66.857z"/>
			<path d="M408.14,61.055c0.203-0.576,0.823-0.856,1.379-0.659l2.022,0.713c0.576,0.205,0.887,0.813,0.683,1.391l-4.773,13.497
				c-0.196,0.555-0.825,0.856-1.402,0.653l-2.022-0.714c-0.555-0.196-0.863-0.804-0.667-1.36L408.14,61.055z"/>
			<path d="M424.481,67.209c5.773,3.419,6.875,7.107,4.008,11.952c-2.866,4.843-6.632,5.653-12.405,2.234l-5.532-3.274
				c-0.509-0.301-0.692-0.959-0.395-1.465l7.294-12.32c0.313-0.527,0.97-0.713,1.498-0.4L424.481,67.209z M420.088,68.386
				l-5.085,8.594l2.635,1.56c3.63,2.147,5.322,1.454,7.123-1.585c1.799-3.04,1.59-4.86-2.037-7.009L420.088,68.386z"/>
			<path d="M442.423,81.374c4.6,4.891,4.631,8.739,0.53,12.598c-4.101,3.857-7.942,3.589-12.541-1.301l-4.406-4.684
				c-0.403-0.428-0.397-1.112,0.029-1.517l10.435-9.812c0.445-0.419,1.127-0.414,1.548,0.032L442.423,81.374z M437.876,81.285
				l-7.273,6.841l2.097,2.231c2.888,3.071,4.712,2.878,7.283,0.457c2.575-2.421,2.879-4.227-0.008-7.299L437.876,81.285z"/>
			<path d="M458.354,107.351l-0.96,0.507c-0.541,0.284-1.188,0.066-1.465-0.455l-4.665-8.855l-2.958,1.559l4.017,7.625
				c0.275,0.521,0.067,1.189-0.452,1.463l-0.956,0.507c-0.521,0.274-1.19,0.067-1.466-0.455l-4.019-7.625l-3.002,1.582l4.657,8.833
				c0.276,0.521,0.077,1.158-0.442,1.431l-0.979,0.516c-0.521,0.275-1.179,0.088-1.465-0.453l-6.159-11.688
				c-0.285-0.54-0.068-1.187,0.473-1.474l12.668-6.674c0.522-0.276,1.168-0.059,1.443,0.461l6.181,11.731
				C459.081,106.409,458.895,107.065,458.354,107.351z"/>
			<path d="M445.382,116.646c-0.125-0.576,0.256-1.164,0.831-1.287l13.998-3.014c0.576-0.125,1.158,0.233,1.283,0.808l0.714,3.316
				c0.118,0.553-0.272,1.31-0.726,1.77l-8.993,9.043l10.476-2.257c0.575-0.124,1.143,0.26,1.266,0.837l0.416,1.933
				c0.128,0.6-0.233,1.159-0.832,1.288l-13.998,3.013c-0.576,0.125-1.157-0.232-1.289-0.832l-0.802-3.728
				c-0.128-0.601,0.21-1.371,0.706-1.863l8.31-8.294l-9.646,2.077c-0.575,0.123-1.165-0.256-1.288-0.832L445.382,116.646z"/>
		</g>
	</g>
</g>
<g>
	<path fill="#FFFFFF" d="M686.386,197.401c5.131,5.131,5.768,12.81,1.429,17.15l0,0c-4.346,4.343-12.023,3.702-17.151-1.427
		l-31.254-31.255c-5.132-5.13-5.771-12.81-1.429-17.151l0,0c4.339-4.342,12.022-3.703,17.15,1.428L686.386,197.401z"/>
	<path stroke="#FFFFFF" stroke-width="8.4858" d="M615.439,194.244c-31.235,0-56.648-25.412-56.648-56.65
		c0-31.237,25.413-56.649,56.648-56.649c31.238,0,56.649,25.413,56.649,56.649C672.089,168.832,646.678,194.244,615.439,194.244z"/>
	<path fill="#FFFFFF" stroke="#000000" stroke-width="8.6555" d="M665.592,137.593c0,27.699-22.45,50.152-50.152,50.152
		c-27.697,0-50.149-22.453-50.149-50.152c0-27.698,22.452-50.152,50.149-50.152C643.142,87.441,665.592,109.895,665.592,137.593z"/>
	<path fill="#FFFFFF" stroke="#000000" stroke-width="2" stroke-miterlimit="10" d="M614.429,110.51c0,0-0.176,2.585-1.349,4.641
		c-1.174,2.054-3.936,3.698-4.17,4.815c-0.234,1.115-0.586,3.875-1.408,5.401c-0.824,1.528-1.999,2.526-2.232,3.29
		c-0.234,0.762-0.232,1.056-0.824,1.758c-0.584,0.704-1.995,1.412-2.463,2.937c-0.471,1.528-0.528,2.175-1.232,3.231
		c-0.705,1.058-1.704,2.816-1.762,4.697c-0.059,1.878-1.057,11.861,0,14.15c1.057,2.291,3.933,6.048,6.165,8.104
		c2.231,2.055,4.401,5.05,5.048,7.047c0.646,1.995,2.113,3.992,3.114,3.992c0.997,0,3.229-0.88,2.993-1.997
		c-0.235-1.113-1.645-3.581-1.645-5.341c0-1.763,0.646-2.351,0.822-3.172c0.176-0.823,0.176-1.116,0.411-1.881
		c0.235-0.762,2.175-2.466,2.582-3.581c0.414-1.114,0.941-2.231,2.118-3.23c1.17-0.997,4.167-3.464,4.402-5.46
		s-0.176-7.398,0.643-9.337c0.825-1.937,0.649-2.289,0.882-3.052c0.238-0.766,1.289-1.819,1.528-2.701
		c0.235-0.882,0.706-2.173,0.411-3.054c-0.292-0.88-1.409-2.995-0.706-4.581c0.706-1.584,4.113-5.519,3.643-8.456
		c-0.471-2.935-0.381-3.638,0.043-4.404c0.428-0.762,1.602-1.818,0.428-4.521c-1.174-2.702-1.472-2.642-2.646-2.583
		c-1.173,0.058-2.582-0.822-3.169-1.234c-0.59-0.41-1.819-1.409-3.467-0.469C620.949,106.459,618.42,109.925,614.429,110.51z"/>
	<g>
		<g>
			<path fill="#FFFFFF" d="M571.656,87.607c-0.521,0.424-1.365,0.413-1.875-0.025l-25.203-21.689
				c-0.51-0.438-0.488-1.129,0.047-1.535l19.564-14.814c0.536-0.406,1.221-0.247,1.523,0.354l14.9,29.683
				c0.301,0.601,0.09,1.397-0.469,1.77L571.656,87.607z"/>
			<path fill="#FFFFFF" d="M557.504,104.189c-0.368,0.562-1.21,0.92-1.87,0.795l-22.726-4.296c-0.66-0.125-0.987-0.734-0.727-1.353
				l7.471-17.7c0.262-0.619,0.936-0.824,1.496-0.455l21.307,14.018c0.561,0.369,0.685,1.107,0.274,1.639L557.504,104.189z"/>
			<path fill="#FFFFFF" d="M590.196,74.839c0.204,0.641,0.89,0.981,1.522,0.757l8.129-2.49c0.65-0.17,1.23-0.857,1.289-1.527
				l2.129-24.368c0.059-0.669-0.439-1.148-1.106-1.065l-19.067,2.4c-0.668,0.083-1.046,0.676-0.842,1.317L590.196,74.839z"/>
		</g>
		<g>
			<path fill="#FFFFFF" d="M535.85,117.745c0.122-0.601,0.699-0.965,1.301-0.844l14.043,2.833c0.576,0.116,0.941,0.695,0.824,1.272
				l-2.623,13.003c-0.117,0.577-0.677,0.97-1.277,0.848l-1.062-0.214c-0.6-0.122-0.964-0.699-0.848-1.276l1.98-9.816l-3.973-0.801
				l-1.613,7.991c-0.115,0.578-0.698,0.964-1.276,0.848l-1.062-0.215c-0.577-0.116-0.965-0.699-0.848-1.276l1.611-7.992
				l-4.734-0.955c-0.602-0.121-0.992-0.682-0.872-1.282L535.85,117.745z"/>
			<path fill="#FFFFFF" d="M550.084,143.652c0.405,5.875-1.83,9.405-7.939,9.826c-6.11,0.422-8.811-2.77-9.214-8.645
				c-0.405-5.875,1.83-9.405,7.94-9.826C546.98,134.586,549.68,137.777,550.084,143.652z M541.169,139.332
				c-3.524,0.242-5.38,1.764-5.138,5.288c0.244,3.525,2.29,4.778,5.814,4.535c3.525-0.243,5.38-1.765,5.137-5.289
				C546.739,140.34,544.693,139.088,541.169,139.332z"/>
			<path fill="#FFFFFF" d="M542.358,161.214l-4.651,1.686c-0.553,0.201-1.179-0.072-1.387-0.648l-0.739-2.037
				c-0.2-0.555,0.095-1.188,0.649-1.389l13.465-4.881c0.576-0.209,1.179,0.073,1.38,0.627l3.235,8.926
				c1.172,3.232,0.188,6.321-2.869,7.429c-2.392,0.867-4.166-0.569-5.42-2.646c-0.002,1.028-0.536,1.974-1.61,3.365l-2.408,3.104
				c-0.447,0.562-0.946,0.568-1.155-0.008l-0.939-2.591c-0.2-0.554-0.031-1.468,0.417-2.03l2.212-2.882
				c0.664-0.867,1.283-1.993,0.776-3.389L542.358,161.214z M549.135,158.758l-3.72,1.349l1.669,4.606
				c0.45,1.24,1.463,2.652,2.881,2.138c1.418-0.514,1.289-2.246,0.84-3.486L549.135,158.758z"/>
			<path fill="#FFFFFF" d="M549.294,187.632c-0.358-0.466-0.36-1.239-0.041-1.752l6.487-10.107l-8.903,6.854
				c-0.485,0.373-1.164,0.302-1.538-0.184l-1.265-1.643c-0.374-0.485-0.269-1.16,0.217-1.534l11.312-8.707
				c0.485-0.374,1.165-0.303,1.523,0.164l2.859,3.714c0.373,0.485,0.342,1.254-0.01,1.763l-5.715,8.68l9.853-3.304
				c0.582-0.21,1.332-0.045,1.706,0.44l2.86,3.714c0.358,0.467,0.254,1.142-0.231,1.516l-11.312,8.708
				c-0.485,0.373-1.163,0.302-1.538-0.184l-1.264-1.643c-0.374-0.485-0.27-1.16,0.215-1.534l8.904-6.854l-11.432,3.688
				c-0.576,0.177-1.323-0.021-1.683-0.487L549.294,187.632z"/>
			<path fill="#FFFFFF" d="M577.66,191.701c4.871,3.311,6.268,7.249,2.826,12.316s-7.618,5.221-12.491,1.911
				c-4.872-3.31-6.269-7.249-2.827-12.317C568.609,188.544,572.787,188.391,577.66,191.701z M568.754,196.048
				c-1.985,2.923-1.934,5.321,0.988,7.308c2.925,1.985,5.173,1.148,7.159-1.774c1.985-2.924,1.935-5.322-0.989-7.309
				C572.989,192.288,570.739,193.125,568.754,196.048z"/>
			<path fill="#FFFFFF" d="M592.238,199.327l2.757,0.961c2.803,0.977,5.238,3.646,4.409,6.024c-0.349,1.001-1.242,0.914-1.53,0.813
				l-1.29-0.449c-0.623-0.217-1.011-0.677-1.111-1.534c-0.092-0.88-0.812-1.53-1.924-1.918l-3.27-1.139
				c-1.333-0.466-2.074-0.2-2.347,0.578c-0.897,2.58,11.384,5.189,9.36,10.992c-0.93,2.669-3.137,3.994-8.474,2.135l-3.291-1.147
				c-2.802-0.977-5.237-3.646-4.408-6.025c0.349-1,1.241-0.914,1.53-0.812l1.29,0.449c0.623,0.217,1.011,0.676,1.11,1.534
				c0.093,0.88,0.813,1.53,1.926,1.918l3.802,1.325c1.333,0.465,2.075,0.199,2.347-0.579c0.898-2.579-11.367-5.234-9.36-10.992
				C584.694,198.792,586.902,197.466,592.238,199.327z"/>
			<path fill="#FFFFFF" d="M603.084,207.056c1.157-3.594,4.517-4.241,7.855-4.063l6.185,0.327c0.565,0.03,0.962,0.547,0.932,1.111
				l-0.761,14.345c-0.03,0.588-0.55,1.032-1.137,1.001l-2.164-0.114c-0.612-0.033-1.058-0.528-1.024-1.14l0.153-2.893l-8.16-0.433
				l-0.93,2.852c-0.197,0.603-0.81,1.042-1.422,1.01l-2.258-0.12c-0.611-0.033-0.939-0.521-0.742-1.101L603.084,207.056z
				 M605.982,211.998l7.313,0.388l0.317-5.997l-3.27-0.173c-1.481-0.079-2.704,0.752-3.156,2.144L605.982,211.998z"/>
		</g>
		<g>
			<path fill="#FFFFFF" d="M629.171,66.857l-7.84-1.104l-0.823,5.856c-0.084,0.582-0.639,0.98-1.222,0.897l-2.123-0.3
				c-0.605-0.085-1.026-0.643-0.944-1.226l1.998-14.182c0.087-0.607,0.642-1.005,1.249-0.92l2.122,0.3
				c0.583,0.082,1.008,0.617,0.922,1.224l-0.724,5.13l7.837,1.106l0.723-5.131c0.087-0.606,0.645-1.004,1.225-0.922l2.123,0.3
				c0.607,0.086,1.031,0.621,0.946,1.227l-2.002,14.183c-0.082,0.582-0.639,1.004-1.246,0.917l-2.123-0.3
				c-0.583-0.081-1.007-0.616-0.925-1.2L629.171,66.857z"/>
			<path fill="#FFFFFF" d="M639.952,61.055c0.203-0.576,0.823-0.856,1.379-0.659l2.022,0.713c0.576,0.205,0.887,0.813,0.683,1.391
				l-4.773,13.497c-0.196,0.555-0.825,0.856-1.402,0.653l-2.022-0.714c-0.555-0.196-0.863-0.804-0.667-1.36L639.952,61.055z"/>
			<path fill="#FFFFFF" d="M656.294,67.209c5.773,3.419,6.875,7.107,4.008,11.952c-2.866,4.843-6.632,5.653-12.405,2.234
				l-5.532-3.274c-0.509-0.301-0.692-0.959-0.395-1.465l7.294-12.32c0.313-0.527,0.97-0.713,1.498-0.4L656.294,67.209z
				 M651.9,68.386l-5.085,8.594l2.635,1.56c3.63,2.147,5.322,1.454,7.123-1.585c1.799-3.04,1.59-4.86-2.037-7.009L651.9,68.386z"/>
			<path fill="#FFFFFF" d="M674.235,81.374c4.6,4.891,4.631,8.739,0.53,12.598c-4.101,3.857-7.942,3.589-12.541-1.301l-4.406-4.684
				c-0.403-0.428-0.397-1.112,0.029-1.517l10.435-9.812c0.445-0.419,1.127-0.414,1.548,0.032L674.235,81.374z M669.688,81.285
				l-7.273,6.841l2.097,2.231c2.888,3.071,4.712,2.878,7.283,0.457c2.575-2.421,2.879-4.227-0.008-7.299L669.688,81.285z"/>
			<path fill="#FFFFFF" d="M690.167,107.351l-0.96,0.507c-0.541,0.284-1.188,0.066-1.465-0.455l-4.665-8.855l-2.958,1.559
				l4.017,7.625c0.275,0.521,0.067,1.189-0.452,1.463l-0.956,0.507c-0.521,0.274-1.19,0.067-1.466-0.455l-4.019-7.625l-3.002,1.582
				l4.657,8.833c0.276,0.521,0.077,1.158-0.442,1.431l-0.979,0.516c-0.521,0.275-1.179,0.088-1.465-0.453l-6.159-11.688
				c-0.285-0.54-0.068-1.187,0.473-1.474l12.668-6.674c0.522-0.276,1.168-0.059,1.443,0.461l6.181,11.731
				C690.894,106.409,690.707,107.065,690.167,107.351z"/>
			<path fill="#FFFFFF" d="M677.194,116.646c-0.125-0.576,0.256-1.164,0.831-1.287l13.998-3.014
				c0.576-0.125,1.158,0.233,1.283,0.808l0.714,3.316c0.118,0.553-0.272,1.31-0.726,1.77l-8.993,9.043l10.476-2.257
				c0.575-0.124,1.143,0.26,1.266,0.837l0.416,1.933c0.128,0.6-0.233,1.159-0.832,1.288l-13.998,3.013
				c-0.576,0.125-1.157-0.232-1.289-0.832l-0.802-3.728c-0.128-0.601,0.21-1.371,0.706-1.863l8.31-8.294l-9.646,2.077
				c-0.575,0.123-1.165-0.256-1.288-0.832L677.194,116.646z"/>
		</g>
	</g>
</g>
<path d="M221.147,415.761c5.458,5.458,5.458,14.309,0.003,19.766l0,0c-5.461,5.459-14.31,5.459-19.769,0l-33.256-33.256
	c-5.458-5.458-5.458-14.309,0-19.769l0,0c5.456-5.456,14.308-5.456,19.766,0.003L221.147,415.761z"/>
<g>
	<g>
		<path fill="#FFFFFF" stroke="#000000" stroke-width="6.3894" stroke-miterlimit="10" d="M143.41,413.179
			c-35.384,0-64.171-28.785-64.171-64.171c0-35.385,28.787-64.174,64.171-64.174c35.384,0,64.171,28.789,64.171,64.174
			C207.581,384.394,178.794,413.179,143.41,413.179z"/>
		<circle fill="#1C75BC" stroke="#FFFFFF" stroke-width="6.3894" stroke-miterlimit="10" cx="143.41" cy="349.008" r="55.602"/>
		<circle fill="#FFFFFF" cx="172.106" cy="314.129" r="14.11"/>
	</g>
	<g>
		<path fill="none" stroke="#FDD8C4" stroke-width="3.1245" stroke-miterlimit="10" d="M119.572,358.57
			c0,0-14.271-4.689-9.608-18.551c4.659-13.865,18.93-9.325,18.93-9.325s-0.084-15.092,14.544-15.092
			c14.625,0,14.625,15.007,14.625,15.007s14.254-4.69,18.825,9.202c4.574,13.896-9.651,18.567-9.651,18.567
			s8.879,12.104-2.938,20.727c-11.813,8.62-20.842-3.411-20.842-3.411s-8.743,12.229-20.619,3.689
			C110.963,370.84,119.572,358.57,119.572,358.57z"/>
		<g>
			<circle fill="#FDD8C4" stroke="#FDD8C4" stroke-width="0.4715" stroke-miterlimit="10" cx="143.496" cy="350.662" r="1.928"/>
			
				<line fill="#FDD8C4" stroke="#FDD8C4" stroke-width="0.4715" stroke-miterlimit="10" x1="143.497" y1="350.662" x2="149.603" y2="336.263"/>
			
				<line fill="#FDD8C4" stroke="#FDD8C4" stroke-width="0.4715" stroke-miterlimit="10" x1="143.497" y1="329.321" x2="143.497" y2="350.662"/>
			<circle fill="#FDD8C4" stroke="#FDD8C4" stroke-width="0.4715" stroke-miterlimit="10" cx="143.497" cy="329.321" r="1.028"/>
			
				<line fill="#FDD8C4" stroke="#FDD8C4" stroke-width="0.4715" stroke-miterlimit="10" x1="136.876" y1="336.455" x2="143.497" y2="350.662"/>
			<circle fill="#FDD8C4" stroke="#FDD8C4" stroke-width="0.4715" stroke-miterlimit="10" cx="136.876" cy="336.457" r="1.028"/>
			
				<line fill="#FDD8C4" stroke="#FDD8C4" stroke-width="0.4715" stroke-miterlimit="10" x1="131.67" y1="340.184" x2="143.497" y2="350.662"/>
			<path fill="#FDD8C4" stroke="#FDD8C4" stroke-width="0.4715" stroke-miterlimit="10" d="M132.355,339.418
				c0.422,0.378,0.459,1.028,0.081,1.452c-0.376,0.421-1.028,0.461-1.452,0.079c-0.423-0.375-0.459-1.027-0.083-1.449
				C131.28,339.076,131.931,339.04,132.355,339.418z"/>
			
				<line fill="#FDD8C4" stroke="#FDD8C4" stroke-width="0.4715" stroke-miterlimit="10" x1="122.787" y1="344.492" x2="143.497" y2="350.662"/>
			<circle fill="#FDD8C4" stroke="#FDD8C4" stroke-width="0.4715" stroke-miterlimit="10" cx="122.787" cy="344.492" r="1.028"/>
			
				<line fill="#FDD8C4" stroke="#FDD8C4" stroke-width="0.4715" stroke-miterlimit="10" x1="127.516" y1="352.59" x2="143.497" y2="350.662"/>
			<path fill="#FDD8C4" stroke="#FDD8C4" stroke-width="0.4715" stroke-miterlimit="10" d="M127.401,351.568
				c0.565-0.062,1.076,0.342,1.138,0.909c0.062,0.562-0.342,1.074-0.906,1.135c-0.563,0.064-1.072-0.339-1.138-0.906
				C126.431,352.145,126.837,351.632,127.401,351.568z"/>
			
				<line fill="#FDD8C4" stroke="#FDD8C4" stroke-width="0.4715" stroke-miterlimit="10" x1="130.254" y1="359.163" x2="143.497" y2="350.662"/>
			<path fill="#FDD8C4" stroke="#FDD8C4" stroke-width="0.4715" stroke-miterlimit="10" d="M129.733,358.281
				c0.486-0.29,1.118-0.129,1.408,0.359c0.29,0.488,0.126,1.12-0.363,1.41c-0.488,0.287-1.12,0.125-1.41-0.363
				C129.082,359.199,129.243,358.567,129.733,358.281z"/>
			
				<line fill="#FDD8C4" stroke="#FDD8C4" stroke-width="0.4715" stroke-miterlimit="10" x1="130.642" y1="368.695" x2="143.497" y2="350.662"/>
			<circle fill="#FDD8C4" stroke="#FDD8C4" stroke-width="0.4715" stroke-miterlimit="10" cx="130.641" cy="368.695" r="1.028"/>
			
				<line fill="#FDD8C4" stroke="#FDD8C4" stroke-width="0.4715" stroke-miterlimit="10" x1="140.525" y1="366.221" x2="143.497" y2="350.662"/>
			<path fill="#FDD8C4" stroke="#FDD8C4" stroke-width="0.4715" stroke-miterlimit="10" d="M139.52,366.019
				c0.107-0.555,0.651-0.921,1.207-0.809c0.557,0.11,0.92,0.653,0.81,1.209c-0.11,0.555-0.653,0.918-1.208,0.809
				C139.771,367.117,139.407,366.577,139.52,366.019z"/>
			
				<line fill="#FDD8C4" stroke="#FDD8C4" stroke-width="0.4715" stroke-miterlimit="10" x1="146.843" y1="366.221" x2="143.497" y2="350.662"/>
			<path fill="#FDD8C4" stroke="#FDD8C4" stroke-width="0.4715" stroke-miterlimit="10" d="M145.842,366.449
				c-0.128-0.556,0.218-1.107,0.773-1.232c0.551-0.126,1.104,0.22,1.231,0.771c0.126,0.556-0.22,1.107-0.772,1.232
				C146.519,367.346,145.969,367.001,145.842,366.449z"/>
			
				<line fill="#FDD8C4" stroke="#FDD8C4" stroke-width="0.4715" stroke-miterlimit="10" x1="156.996" y1="367.667" x2="143.497" y2="350.662"/>
			<path fill="#FDD8C4" stroke="#FDD8C4" stroke-width="0.4715" stroke-miterlimit="10" d="M156.175,368.286
				c-0.343-0.455-0.253-1.099,0.202-1.44c0.453-0.342,1.098-0.253,1.44,0.198c0.342,0.455,0.252,1.102-0.201,1.44
				C157.161,368.829,156.515,368.737,156.175,368.286z"/>
			
				<line fill="#FDD8C4" stroke="#FDD8C4" stroke-width="0.4715" stroke-miterlimit="10" x1="157.686" y1="358.477" x2="143.497" y2="350.662"/>
			<path fill="#FDD8C4" stroke="#FDD8C4" stroke-width="0.4715" stroke-miterlimit="10" d="M157.188,359.376
				c-0.498-0.274-0.679-0.899-0.404-1.397c0.274-0.494,0.898-0.677,1.397-0.405c0.498,0.277,0.679,0.899,0.404,1.397
				C158.312,359.471,157.686,359.65,157.188,359.376z"/>
			
				<line fill="#FDD8C4" stroke="#FDD8C4" stroke-width="0.4715" stroke-miterlimit="10" x1="159.981" y1="351.767" x2="143.497" y2="350.662"/>
			<path fill="#FDD8C4" stroke="#FDD8C4" stroke-width="0.4715" stroke-miterlimit="10" d="M159.896,352.789
				c-0.564-0.049-0.987-0.544-0.94-1.108c0.049-0.567,0.545-0.988,1.111-0.942s0.989,0.546,0.94,1.11
				C160.961,352.413,160.463,352.838,159.896,352.789z"/>
			
				<line fill="#FDD8C4" stroke="#FDD8C4" stroke-width="0.4715" stroke-miterlimit="10" x1="164.032" y1="343.699" x2="143.497" y2="350.662"/>
			<circle fill="#FDD8C4" stroke="#FDD8C4" stroke-width="0.4715" stroke-miterlimit="10" cx="164.031" cy="343.699" r="1.028"/>
			<circle fill="#FDD8C4" stroke="#FDD8C4" stroke-width="0.4715" stroke-miterlimit="10" cx="149.603" cy="336.263" r="1.221"/>
			
				<line fill="#FDD8C4" stroke="#FDD8C4" stroke-width="0.4715" stroke-miterlimit="10" x1="143.497" y1="350.662" x2="155.131" y2="339.54"/>
			<circle fill="#FDD8C4" stroke="#FDD8C4" stroke-width="0.4715" stroke-miterlimit="10" cx="155.132" cy="339.542" r="1.221"/>
		</g>
	</g>
</g>
<g>
	<path d="M453.303,415.761c5.459,5.458,5.459,14.309,0.004,19.766l0,0c-5.462,5.459-14.311,5.459-19.77,0l-33.256-33.256
		c-5.458-5.458-5.458-14.309,0-19.769l0,0c5.456-5.456,14.308-5.456,19.766,0.003L453.303,415.761z"/>
</g>
<g>
	<g>
		<g>
			<path fill="#FFFFFF" d="M375.566,413.179c-35.384,0-64.171-28.785-64.171-64.171c0-35.385,28.787-64.174,64.171-64.174
				c35.384,0,64.171,28.789,64.171,64.174C439.737,384.394,410.95,413.179,375.566,413.179z"/>
			<path d="M375.566,416.373c-37.146,0-67.366-30.22-67.366-67.365c0-37.147,30.22-67.369,67.366-67.369
				c37.146,0,67.365,30.221,67.365,67.369C442.932,386.153,412.712,416.373,375.566,416.373z M375.566,288.029
				c-33.623,0-60.977,27.355-60.977,60.979c0,33.622,27.354,60.977,60.977,60.977c33.622,0,60.977-27.354,60.977-60.977
				C436.543,315.384,409.188,288.029,375.566,288.029z"/>
		</g>
		<g>
			<circle cx="375.566" cy="349.008" r="55.602"/>
			<path fill="#FFFFFF" d="M375.566,407.806c-32.42,0-58.796-26.376-58.796-58.798c0-32.421,26.376-58.798,58.796-58.798
				c32.42,0,58.796,26.377,58.796,58.798C434.362,381.43,407.986,407.806,375.566,407.806z M375.566,296.6
				c-28.897,0-52.407,23.51-52.407,52.408s23.509,52.409,52.407,52.409s52.407-23.511,52.407-52.409S404.464,296.6,375.566,296.6z"
				/>
		</g>
		<g>
			<circle fill="#FFFFFF" cx="404.263" cy="314.129" r="14.11"/>
		</g>
	</g>
	<g>
		<g>
			<path fill="#FFFFFF" d="M363.486,383.976c-3.174,0-6.339-1.118-9.405-3.323c-10.285-7.4-6.608-17.42-4.592-21.325
				c-2.298-1.096-6.278-3.507-8.422-7.785c-1.775-3.543-1.918-7.588-0.428-12.021c2.406-7.158,7.799-11.101,15.187-11.101
				c1.49,0,2.808,0.164,3.8,0.342c0.315-2.551,1.349-7.094,4.723-10.487c2.795-2.811,6.578-4.235,11.245-4.235
				c12.648,0,15.415,10.248,16.019,14.626c1.032-0.196,2.418-0.381,3.986-0.381c7.286,0,12.587,3.92,14.929,11.038
				c2.614,7.944-0.463,13.142-3.505,16.103c-1.861,1.812-3.916,2.998-5.343,3.685c1.231,2.238,3.037,6.485,2.309,11.186
				c-0.608,3.925-2.833,7.313-6.614,10.071c-3.101,2.264-6.321,3.411-9.572,3.411c-5.785,0-10.126-3.597-12.163-5.69
				C373.633,380.245,369.32,383.976,363.486,383.976z M355.826,331.546c-6.111,0-10.224,3.019-12.225,8.972
				c-1.213,3.606-1.129,6.838,0.25,9.604c2.466,4.95,8.31,6.945,8.369,6.965l1.989,0.663l-1.201,1.718
				c-0.312,0.448-7.556,11.126,2.898,18.647c2.523,1.815,5.074,2.735,7.581,2.735c6.405,0,10.813-6.007,10.856-6.067l1.242-1.722
				l1.276,1.695c0.043,0.057,4.539,5.897,10.941,5.896c2.574,0,5.175-0.945,7.73-2.81c10.387-7.579,2.921-18.1,2.598-18.543
				l-1.261-1.734l2.035-0.672c0.517-0.172,12.675-4.379,8.653-16.595c-1.94-5.899-5.965-8.891-11.96-8.891
				c-2.751,0-4.874,0.679-4.895,0.686l-2.044,0.662l-0.003-2.147c-0.002-0.546-0.206-13.444-13.062-13.444
				c-3.795,0-6.828,1.109-9.013,3.298c-3.932,3.937-3.969,10.163-3.969,10.226l0.003,2.14l-2.039-0.646
				C360.559,332.178,358.512,331.546,355.826,331.546z"/>
		</g>
		<g>
			<g>
				<circle fill="#FFFFFF" cx="375.652" cy="350.662" r="1.928"/>
				<path fill="#FFFFFF" d="M375.653,352.825c-1.193,0-2.165-0.97-2.165-2.163s0.971-2.164,2.165-2.164
					c1.192,0,2.163,0.971,2.163,2.164S376.846,352.825,375.653,352.825z M375.653,348.969c-0.934,0-1.693,0.76-1.693,1.693
					c0,0.933,0.759,1.692,1.693,1.692c0.933,0,1.691-0.76,1.691-1.692C377.344,349.729,376.586,348.969,375.653,348.969z"/>
			</g>
			<g>
				<line fill="#FFFFFF" x1="375.653" y1="350.662" x2="381.759" y2="336.263"/>
				
					<rect x="378.47" y="335.642" transform="matrix(0.9212 0.3892 -0.3892 0.9212 163.5188 -120.3039)" fill="#FFFFFF" width="0.472" height="15.64"/>
			</g>
			<g>
				<line fill="#FFFFFF" x1="375.653" y1="329.321" x2="375.653" y2="350.662"/>
				<rect x="375.417" y="329.321" fill="#FFFFFF" width="0.472" height="21.341"/>
			</g>
			<g>
				<circle fill="#FFFFFF" cx="375.653" cy="329.321" r="1.028"/>
				<path fill="#FFFFFF" d="M375.653,330.585c-0.697,0-1.264-0.566-1.264-1.264s0.567-1.264,1.264-1.264s1.264,0.566,1.264,1.264
					S376.35,330.585,375.653,330.585z M375.653,328.528c-0.437,0-0.792,0.355-0.792,0.793s0.355,0.793,0.792,0.793
					s0.792-0.355,0.792-0.793S376.09,328.528,375.653,328.528z"/>
			</g>
			<g>
				<line fill="#FFFFFF" x1="369.032" y1="336.455" x2="375.653" y2="350.662"/>
				
					<rect x="364.506" y="343.323" transform="matrix(0.4224 0.9064 -0.9064 0.4224 526.4585 -139.0593)" fill="#FFFFFF" width="15.674" height="0.472"/>
			</g>
			<g>
				<circle fill="#FFFFFF" cx="369.032" cy="336.457" r="1.028"/>
				<path fill="#FFFFFF" d="M369.033,337.721c-0.498,0-0.951-0.294-1.154-0.748c-0.284-0.637,0.001-1.385,0.636-1.669
					c0.622-0.283,1.394,0.021,1.671,0.637c0.138,0.307,0.147,0.65,0.027,0.966c-0.121,0.316-0.357,0.566-0.665,0.703
					C369.385,337.684,369.211,337.721,369.033,337.721z M369.031,335.664c-0.111,0-0.22,0.023-0.324,0.069
					c-0.398,0.179-0.576,0.647-0.398,1.046c0.173,0.387,0.656,0.575,1.046,0.4c0.194-0.087,0.342-0.243,0.417-0.441
					c0.076-0.198,0.069-0.412-0.017-0.604C369.627,335.849,369.343,335.664,369.031,335.664z"/>
			</g>
			<g>
				<line fill="#FFFFFF" x1="363.827" y1="340.184" x2="375.653" y2="350.662"/>
				
					<rect x="361.84" y="345.187" transform="matrix(0.7485 0.6632 -0.6632 0.7485 322.0674 -158.3151)" fill="#FFFFFF" width="15.801" height="0.472"/>
			</g>
			<g>
				<path fill="#FFFFFF" d="M364.512,339.418c0.422,0.378,0.459,1.028,0.081,1.452c-0.376,0.421-1.028,0.461-1.452,0.079
					c-0.423-0.375-0.459-1.027-0.083-1.449C363.436,339.076,364.087,339.04,364.512,339.418z"/>
				<path fill="#FFFFFF" d="M363.826,341.448c-0.312,0-0.612-0.115-0.843-0.324c-0.25-0.222-0.399-0.529-0.419-0.866
					c-0.02-0.339,0.094-0.663,0.318-0.915c0.446-0.498,1.285-0.547,1.787-0.101c0.52,0.465,0.564,1.265,0.1,1.785
					C364.529,341.295,364.185,341.448,363.826,341.448z M363.826,339.393c-0.226,0-0.442,0.097-0.592,0.265
					c-0.141,0.157-0.211,0.36-0.199,0.572c0.013,0.212,0.105,0.404,0.262,0.543c0.316,0.284,0.84,0.254,1.12-0.06
					c0.291-0.326,0.263-0.828-0.062-1.119C364.209,339.464,364.021,339.393,363.826,339.393z"/>
			</g>
			<g>
				<line fill="#FFFFFF" x1="354.943" y1="344.492" x2="375.653" y2="350.662"/>
				
					<rect x="354.493" y="347.342" transform="matrix(0.9584 0.2855 -0.2855 0.9584 114.4433 -89.8293)" fill="#FFFFFF" width="21.61" height="0.471"/>
			</g>
			<g>
				<circle fill="#FFFFFF" cx="354.943" cy="344.492" r="1.028"/>
				<path fill="#FFFFFF" d="M354.944,345.757c-0.13,0-0.26-0.021-0.385-0.061c-0.665-0.214-1.034-0.926-0.822-1.587
					c0.207-0.651,0.934-1.028,1.59-0.821c0.32,0.102,0.583,0.322,0.739,0.622c0.156,0.301,0.185,0.644,0.082,0.965
					C355.98,345.402,355.496,345.757,354.944,345.757z M354.941,343.699c-0.346,0-0.649,0.222-0.754,0.553
					c-0.132,0.415,0.1,0.861,0.517,0.995c0.407,0.132,0.865-0.106,0.996-0.515c0.064-0.202,0.046-0.417-0.052-0.605
					c-0.097-0.188-0.262-0.326-0.463-0.39C355.104,343.712,355.023,343.699,354.941,343.699z"/>
			</g>
			<g>
				<line fill="#FFFFFF" x1="359.672" y1="352.59" x2="375.653" y2="350.662"/>
				
					<rect x="367.427" y="343.578" transform="matrix(0.12 0.9928 -0.9928 0.12 672.6445 -55.5631)" fill="#FFFFFF" width="0.472" height="16.097"/>
			</g>
			<g>
				<path fill="#FFFFFF" d="M359.558,351.568c0.565-0.062,1.076,0.342,1.138,0.909c0.062,0.562-0.342,1.074-0.906,1.135
					c-0.563,0.064-1.072-0.339-1.138-0.906C358.587,352.145,358.993,351.632,359.558,351.568z"/>
				<path fill="#FFFFFF" d="M359.671,353.854c-0.641,0-1.18-0.481-1.254-1.121c-0.038-0.336,0.057-0.666,0.268-0.931
					s0.511-0.431,0.846-0.469c0.724-0.072,1.323,0.431,1.399,1.118c0.038,0.336-0.059,0.667-0.271,0.932
					c-0.211,0.263-0.511,0.427-0.844,0.463C359.768,353.853,359.719,353.854,359.671,353.854z M359.671,351.798
					c-0.029,0-0.059,0.002-0.088,0.005c-0.208,0.023-0.397,0.128-0.529,0.294s-0.192,0.373-0.168,0.583
					c0.05,0.431,0.438,0.758,0.877,0.698c0.209-0.022,0.396-0.125,0.528-0.289c0.133-0.166,0.194-0.374,0.17-0.585
					C360.417,352.102,360.078,351.798,359.671,351.798z"/>
			</g>
			<g>
				<line fill="#FFFFFF" x1="362.411" y1="359.163" x2="375.653" y2="350.662"/>
				
					<rect x="368.796" y="347.044" transform="matrix(0.5408 0.8412 -0.8412 0.5408 468.02 -147.4308)" fill="#FFFFFF" width="0.471" height="15.736"/>
			</g>
			<g>
				<path fill="#FFFFFF" d="M361.889,358.281c0.486-0.29,1.118-0.129,1.408,0.359c0.29,0.488,0.126,1.12-0.363,1.41
					c-0.488,0.287-1.12,0.125-1.41-0.363C361.238,359.199,361.399,358.567,361.889,358.281z"/>
				<path fill="#FFFFFF" d="M362.414,360.429c-0.446,0-0.864-0.238-1.092-0.621c-0.172-0.293-0.219-0.634-0.133-0.962
					c0.085-0.325,0.292-0.599,0.582-0.768c0.574-0.341,1.389-0.133,1.73,0.442c0.172,0.29,0.221,0.631,0.136,0.958
					c-0.084,0.328-0.291,0.603-0.582,0.775C362.859,360.368,362.638,360.429,362.414,360.429z M362.412,358.373
					c-0.141,0-0.28,0.038-0.402,0.11c-0.183,0.107-0.312,0.278-0.365,0.481c-0.054,0.206-0.024,0.42,0.083,0.604
					c0.214,0.359,0.724,0.493,1.087,0.279c0.182-0.108,0.312-0.281,0.365-0.486c0.053-0.205,0.022-0.419-0.085-0.601
					C362.953,358.521,362.691,358.373,362.412,358.373z"/>
			</g>
			<g>
				<line fill="#FFFFFF" x1="362.798" y1="368.695" x2="375.653" y2="350.662"/>
				
					<rect x="368.99" y="348.606" transform="matrix(0.8144 0.5803 -0.5803 0.8144 277.2224 -147.5016)" fill="#FFFFFF" width="0.471" height="22.146"/>
			</g>
			<g>
				<circle fill="#FFFFFF" cx="362.797" cy="368.695" r="1.028"/>
				<path fill="#FFFFFF" d="M362.798,369.959c-0.263,0-0.516-0.08-0.73-0.232c-0.569-0.404-0.704-1.195-0.301-1.764
					c0.386-0.546,1.208-0.691,1.761-0.303c0.57,0.406,0.704,1.198,0.301,1.767C363.594,369.76,363.208,369.959,362.798,369.959z
					 M362.799,367.9c-0.258,0-0.5,0.125-0.647,0.335c-0.253,0.356-0.168,0.853,0.188,1.106c0.343,0.242,0.862,0.153,1.103-0.188
					c0.254-0.357,0.169-0.854-0.188-1.11C363.121,367.95,362.963,367.9,362.799,367.9z"/>
			</g>
			<g>
				<line fill="#FFFFFF" x1="372.681" y1="366.221" x2="375.653" y2="350.662"/>
				
					<rect x="373.932" y="350.521" transform="matrix(0.9824 0.1865 -0.1865 0.9824 73.4315 -63.5058)" fill="#FFFFFF" width="0.471" height="15.84"/>
			</g>
			<g>
				<path fill="#FFFFFF" d="M371.676,366.019c0.107-0.555,0.651-0.921,1.207-0.809c0.557,0.11,0.92,0.653,0.81,1.209
					c-0.11,0.555-0.653,0.918-1.208,0.809C371.928,367.117,371.563,366.577,371.676,366.019z"/>
				<path fill="#FFFFFF" d="M372.683,367.482c-0.081,0-0.162-0.008-0.244-0.023c-0.333-0.066-0.62-0.258-0.808-0.54
					c-0.187-0.28-0.253-0.616-0.187-0.947c0.129-0.669,0.788-1.133,1.485-0.993c0.683,0.136,1.13,0.803,0.995,1.486
					C373.807,367.055,373.285,367.482,372.683,367.482z M372.681,365.426c-0.377,0-0.703,0.268-0.774,0.638
					c-0.042,0.208,0,0.419,0.116,0.595c0.118,0.177,0.298,0.297,0.507,0.338c0.431,0.079,0.848-0.204,0.931-0.623
					c0.085-0.429-0.195-0.847-0.625-0.932C372.784,365.431,372.732,365.426,372.681,365.426z"/>
			</g>
			<g>
				<line fill="#FFFFFF" x1="378.999" y1="366.221" x2="375.653" y2="350.662"/>
				
					<rect x="369.369" y="358.206" transform="matrix(0.2102 0.9777 -0.9777 0.2102 648.4304 -85.8083)" fill="#FFFFFF" width="15.914" height="0.472"/>
			</g>
			<g>
				<path fill="#FFFFFF" d="M377.998,366.449c-0.128-0.556,0.218-1.107,0.773-1.232c0.551-0.126,1.104,0.22,1.231,0.771
					c0.126,0.556-0.22,1.107-0.772,1.232C378.675,367.346,378.125,367.001,377.998,366.449z"/>
				<path fill="#FFFFFF" d="M379.001,367.482c-0.593,0-1.101-0.403-1.233-0.98c-0.076-0.331-0.019-0.671,0.162-0.957
					c0.18-0.285,0.46-0.483,0.79-0.559c0.659-0.147,1.361,0.289,1.513,0.949c0.075,0.331,0.017,0.672-0.163,0.958
					c-0.18,0.285-0.459,0.482-0.787,0.557C379.19,367.472,379.096,367.482,379.001,367.482z M379,365.427
					c-0.059,0-0.118,0.007-0.176,0.02c-0.208,0.047-0.383,0.171-0.496,0.35c-0.113,0.18-0.148,0.393-0.101,0.601
					c0.096,0.419,0.528,0.695,0.951,0.594c0.205-0.046,0.379-0.17,0.492-0.348c0.113-0.18,0.149-0.394,0.102-0.602
					C379.691,365.686,379.366,365.427,379,365.427z"/>
			</g>
			<g>
				<line fill="#FFFFFF" x1="389.152" y1="367.667" x2="375.653" y2="350.662"/>
				
					<rect x="371.547" y="358.929" transform="matrix(0.6217 0.7832 -0.7832 0.6217 425.9597 -163.6487)" fill="#FFFFFF" width="21.711" height="0.471"/>
			</g>
			<g>
				<path fill="#FFFFFF" d="M388.331,368.286c-0.343-0.455-0.253-1.099,0.202-1.44c0.453-0.342,1.098-0.253,1.44,0.198
					c0.342,0.455,0.252,1.102-0.201,1.44C389.317,368.829,388.671,368.737,388.331,368.286z"/>
				<path fill="#FFFFFF" d="M389.151,368.93c-0.4,0-0.768-0.183-1.008-0.502c-0.205-0.271-0.291-0.604-0.244-0.938
					c0.047-0.334,0.222-0.63,0.492-0.833c0.541-0.407,1.363-0.293,1.77,0.244c0.205,0.272,0.291,0.607,0.242,0.943
					c-0.047,0.334-0.222,0.628-0.49,0.828C389.692,368.841,389.428,368.93,389.151,368.93z M389.153,366.873
					c-0.174,0-0.339,0.056-0.478,0.161c-0.17,0.127-0.279,0.312-0.309,0.521c-0.029,0.21,0.025,0.419,0.153,0.589
					c0.255,0.338,0.771,0.411,1.11,0.152c0.169-0.127,0.277-0.311,0.307-0.519c0.03-0.212-0.023-0.422-0.152-0.593
					C389.634,366.987,389.404,366.873,389.153,366.873z"/>
			</g>
			<g>
				<line fill="#FFFFFF" x1="389.842" y1="358.477" x2="375.653" y2="350.662"/>
				
					<rect x="374.648" y="354.334" transform="matrix(0.8759 0.4824 -0.4824 0.8759 218.5407 -140.6591)" fill="#FFFFFF" width="16.198" height="0.471"/>
			</g>
			<g>
				<path fill="#FFFFFF" d="M389.344,359.376c-0.498-0.274-0.679-0.899-0.404-1.397c0.274-0.494,0.898-0.677,1.397-0.405
					c0.498,0.277,0.679,0.899,0.404,1.397C390.469,359.471,389.842,359.65,389.344,359.376z"/>
				<path fill="#FFFFFF" d="M389.841,359.74c-0.212,0-0.423-0.055-0.61-0.158c-0.61-0.336-0.833-1.106-0.497-1.718
					c0.327-0.586,1.123-0.822,1.717-0.498c0.61,0.34,0.833,1.11,0.498,1.718C390.728,359.488,390.303,359.74,389.841,359.74z
					 M389.844,357.684c-0.29,0-0.558,0.156-0.698,0.409c-0.21,0.383-0.071,0.865,0.312,1.077c0.374,0.205,0.875,0.058,1.077-0.312
					c0.21-0.382,0.07-0.865-0.312-1.078C390.108,357.717,389.977,357.684,389.844,357.684z"/>
			</g>
			<g>
				<line fill="#FFFFFF" x1="392.138" y1="351.767" x2="375.653" y2="350.662"/>
				
					<rect x="375.635" y="350.978" transform="matrix(0.9978 0.0669 -0.0669 0.9978 24.3384 -24.8787)" fill="#FFFFFF" width="16.521" height="0.472"/>
			</g>
			<g>
				<path fill="#FFFFFF" d="M392.052,352.789c-0.564-0.049-0.987-0.544-0.94-1.108c0.049-0.567,0.545-0.988,1.111-0.942
					s0.989,0.546,0.94,1.11C393.117,352.413,392.62,352.838,392.052,352.789z"/>
				<path fill="#FFFFFF" d="M392.141,353.028c-0.036,0-0.072-0.001-0.109-0.004c-0.695-0.061-1.213-0.672-1.155-1.363
					c0.06-0.697,0.659-1.226,1.365-1.158c0.337,0.027,0.643,0.186,0.862,0.444s0.323,0.586,0.294,0.922
					C393.345,352.519,392.793,353.028,392.141,353.028z M392.139,350.971c-0.409,0-0.756,0.32-0.792,0.73
					c-0.036,0.433,0.289,0.815,0.726,0.853l0.068,0.003c0.408,0,0.754-0.319,0.787-0.728c0.018-0.211-0.047-0.415-0.184-0.577
					c-0.138-0.163-0.329-0.262-0.54-0.278L392.139,350.971z"/>
			</g>
			<g>
				<line fill="#FFFFFF" x1="396.188" y1="343.699" x2="375.653" y2="350.662"/>
				
					<rect x="385.685" y="336.339" transform="matrix(0.3206 0.9472 -0.9472 0.3206 591.0654 -129.6682)" fill="#FFFFFF" width="0.472" height="21.683"/>
			</g>
			<g>
				<circle fill="#FFFFFF" cx="396.188" cy="343.699" r="1.028"/>
				<path fill="#FFFFFF" d="M396.19,344.962c-0.537,0-1.017-0.34-1.195-0.847c-0.231-0.653,0.115-1.376,0.773-1.609
					c0.646-0.226,1.387,0.134,1.615,0.772c0.229,0.659-0.119,1.382-0.776,1.613C396.472,344.938,396.332,344.962,396.19,344.962z
					 M396.188,342.905c-0.089,0-0.178,0.016-0.263,0.046c-0.413,0.146-0.63,0.598-0.485,1.007c0.142,0.404,0.606,0.628,1.011,0.488
					c0.412-0.145,0.631-0.599,0.487-1.011C396.825,343.119,396.524,342.905,396.188,342.905z"/>
			</g>
			<g>
				<circle fill="#FFFFFF" cx="381.76" cy="336.263" r="1.221"/>
				<path fill="#FFFFFF" d="M381.759,337.719c-0.803,0-1.457-0.653-1.457-1.456s0.653-1.455,1.457-1.455
					c0.804,0,1.458,0.652,1.458,1.455S382.562,337.719,381.759,337.719z M381.759,335.278c-0.543,0-0.985,0.441-0.985,0.984
					s0.442,0.985,0.985,0.985c0.544,0,0.986-0.442,0.986-0.985S382.303,335.278,381.759,335.278z"/>
			</g>
			<g>
				<line fill="#FFFFFF" x1="375.653" y1="350.662" x2="387.288" y2="339.54"/>
				
					<rect x="381.234" y="337.053" transform="matrix(0.6904 0.7234 -0.7234 0.6904 367.775 -169.1235)" fill="#FFFFFF" width="0.472" height="16.095"/>
			</g>
			<g>
				<circle fill="#FFFFFF" cx="387.288" cy="339.542" r="1.221"/>
				<path fill="#FFFFFF" d="M387.288,341c-0.199,0-0.393-0.041-0.577-0.121c-0.357-0.152-0.633-0.437-0.777-0.798
					c-0.144-0.362-0.138-0.76,0.017-1.117c0.307-0.716,1.189-1.074,1.914-0.76c0.356,0.152,0.632,0.436,0.777,0.797
					c0.145,0.362,0.139,0.76-0.015,1.117C388.395,340.654,387.87,341,387.288,341z M387.287,338.555
					c-0.394,0-0.749,0.234-0.903,0.596c-0.105,0.243-0.109,0.511-0.012,0.756c0.097,0.245,0.284,0.437,0.525,0.54
					c0.492,0.213,1.086-0.029,1.296-0.515c0.104-0.242,0.108-0.511,0.01-0.756c-0.098-0.244-0.284-0.436-0.525-0.539
					C387.552,338.582,387.42,338.555,387.287,338.555z"/>
			</g>
		</g>
	</g>
</g>
<g>
	<path fill="#FFFFFF" d="M685.459,415.761c5.459,5.458,5.459,14.309,0.004,19.766l0,0c-5.462,5.459-14.311,5.459-19.77,0
		l-33.256-33.256c-5.459-5.458-5.459-14.309,0-19.769l0,0c5.456-5.456,14.308-5.456,19.766,0.003L685.459,415.761z"/>
</g>
<g>
	<g>
		<g>
			<path d="M607.723,413.179c-35.385,0-64.172-28.785-64.172-64.171c0-35.385,28.787-64.174,64.172-64.174
				c35.384,0,64.171,28.789,64.171,64.174C671.894,384.394,643.106,413.179,607.723,413.179z"/>
			<path fill="#FFFFFF" d="M607.723,416.373c-37.146,0-67.366-30.22-67.366-67.365c0-37.147,30.22-67.369,67.366-67.369
				c37.146,0,67.365,30.221,67.365,67.369C675.088,386.153,644.868,416.373,607.723,416.373z M607.723,288.029
				c-33.623,0-60.978,27.355-60.978,60.979c0,33.622,27.354,60.977,60.978,60.977c33.622,0,60.977-27.354,60.977-60.977
				C668.699,315.384,641.345,288.029,607.723,288.029z"/>
		</g>
		<g>
			<circle fill="#FFFFFF" cx="607.723" cy="349.008" r="55.602"/>
			<path d="M607.723,407.806c-32.42,0-58.796-26.376-58.796-58.798c0-32.421,26.376-58.798,58.796-58.798
				s58.796,26.377,58.796,58.798C666.519,381.43,640.143,407.806,607.723,407.806z M607.723,296.6
				c-28.897,0-52.407,23.51-52.407,52.408s23.51,52.409,52.407,52.409s52.407-23.511,52.407-52.409S636.62,296.6,607.723,296.6z"/>
		</g>
		<g>
			<circle cx="636.419" cy="314.129" r="14.11"/>
		</g>
	</g>
	<g>
		<g>
			<path d="M595.643,383.976c-3.175,0-6.339-1.118-9.405-3.323c-10.285-7.4-6.608-17.42-4.593-21.325
				c-2.298-1.096-6.278-3.507-8.422-7.785c-1.774-3.543-1.918-7.588-0.427-12.021c2.405-7.158,7.798-11.101,15.186-11.101
				c1.491,0,2.809,0.164,3.801,0.342c0.315-2.551,1.349-7.094,4.724-10.487c2.794-2.811,6.577-4.235,11.244-4.235
				c12.648,0,15.415,10.248,16.019,14.626c1.032-0.196,2.419-0.381,3.986-0.381c7.285,0,12.587,3.92,14.929,11.038
				c2.614,7.944-0.463,13.142-3.505,16.103c-1.861,1.812-3.916,2.998-5.343,3.685c1.231,2.238,3.037,6.485,2.309,11.186
				c-0.608,3.925-2.834,7.313-6.614,10.071c-3.102,2.264-6.321,3.411-9.572,3.411c-5.784,0-10.126-3.597-12.163-5.69
				C605.789,380.245,601.477,383.976,595.643,383.976z M587.981,331.546c-6.111,0-10.224,3.019-12.225,8.972
				c-1.216,3.615-1.129,6.854,0.26,9.625c2.488,4.968,8.298,6.925,8.355,6.943l2.001,0.657l-1.209,1.725
				c-0.312,0.448-7.557,11.126,2.897,18.647c2.524,1.815,5.075,2.735,7.581,2.735c6.404,0,10.812-6.007,10.856-6.067l1.242-1.722
				l1.276,1.695c0.042,0.057,4.538,5.897,10.94,5.896c2.574,0,5.175-0.945,7.73-2.81c10.388-7.579,2.922-18.1,2.599-18.543
				l-1.261-1.734l2.035-0.672c0.517-0.172,12.675-4.379,8.653-16.595c-1.94-5.899-5.964-8.891-11.96-8.891
				c-2.751,0-4.874,0.679-4.895,0.686l-2.044,0.662l-0.004-2.147c-0.002-0.546-0.205-13.444-13.062-13.444
				c-3.795,0-6.828,1.109-9.013,3.298c-3.932,3.937-3.969,10.163-3.969,10.226l0.003,2.14l-2.039-0.646
				C592.715,332.178,590.668,331.546,587.981,331.546z"/>
		</g>
		<g>
			<g>
				<circle cx="607.809" cy="350.662" r="1.928"/>
				<path d="M607.81,352.825c-1.193,0-2.164-0.97-2.164-2.163s0.971-2.164,2.164-2.164c1.192,0,2.162,0.971,2.162,2.164
					S609.002,352.825,607.81,352.825z M607.81,348.969c-0.934,0-1.693,0.76-1.693,1.693c0,0.933,0.76,1.692,1.693,1.692
					c0.933,0,1.691-0.76,1.691-1.692C609.501,349.729,608.742,348.969,607.81,348.969z"/>
			</g>
			<g>
				<line x1="607.81" y1="350.662" x2="613.915" y2="336.263"/>
				
					<rect x="610.627" y="335.642" transform="matrix(0.9209 0.3899 -0.3899 0.9209 182.2677 -210.9976)" width="0.471" height="15.64"/>
			</g>
			<g>
				<line x1="607.81" y1="329.321" x2="607.81" y2="350.662"/>
				<rect x="607.574" y="329.321" width="0.471" height="21.341"/>
			</g>
			<g>
				<circle cx="607.81" cy="329.321" r="1.028"/>
				<path d="M607.81,330.585c-0.697,0-1.264-0.566-1.264-1.264s0.566-1.264,1.264-1.264s1.264,0.566,1.264,1.264
					S608.507,330.585,607.81,330.585z M607.81,328.528c-0.438,0-0.793,0.355-0.793,0.793s0.355,0.793,0.793,0.793
					s0.793-0.355,0.793-0.793S608.247,328.528,607.81,328.528z"/>
			</g>
			<g>
				<line x1="601.188" y1="336.455" x2="607.81" y2="350.662"/>
				
					<rect x="596.662" y="343.323" transform="matrix(0.4224 0.9064 -0.9064 0.4224 660.547 -349.4855)" width="15.674" height="0.472"/>
			</g>
			<g>
				<circle cx="601.188" cy="336.457" r="1.028"/>
				<path d="M601.188,337.721c-0.497,0-0.95-0.294-1.153-0.748c-0.139-0.309-0.148-0.651-0.028-0.967
					c0.121-0.315,0.356-0.564,0.664-0.702c0.621-0.281,1.396,0.02,1.671,0.637c0.139,0.308,0.147,0.65,0.027,0.967
					c-0.121,0.315-0.357,0.565-0.666,0.703C601.541,337.684,601.367,337.721,601.188,337.721z M601.188,335.664
					c-0.111,0-0.221,0.023-0.323,0.069c-0.193,0.087-0.341,0.243-0.416,0.44c-0.076,0.197-0.069,0.412,0.017,0.605
					c0.173,0.387,0.654,0.574,1.046,0.4c0.194-0.087,0.342-0.243,0.418-0.441c0.075-0.197,0.069-0.412-0.017-0.604
					C601.784,335.849,601.5,335.664,601.188,335.664z"/>
			</g>
			<g>
				<line x1="595.982" y1="340.184" x2="607.81" y2="350.662"/>
				
					<rect x="593.995" y="345.187" transform="matrix(0.7485 0.6631 -0.6631 0.7485 380.446 -312.2668)" width="15.801" height="0.472"/>
			</g>
			<g>
				<path d="M596.668,339.418c0.422,0.378,0.459,1.028,0.08,1.452c-0.376,0.421-1.027,0.461-1.451,0.079
					c-0.424-0.375-0.46-1.027-0.083-1.449C595.592,339.076,596.244,339.04,596.668,339.418z"/>
				<path d="M595.981,341.448c-0.312,0-0.61-0.115-0.843-0.324c-0.25-0.221-0.399-0.529-0.419-0.866
					c-0.02-0.338,0.094-0.663,0.318-0.915c0.446-0.499,1.285-0.547,1.787-0.101c0.519,0.465,0.563,1.266,0.099,1.785
					C596.685,341.295,596.342,341.448,595.981,341.448z M595.981,339.393c-0.226,0-0.441,0.097-0.592,0.265
					c-0.141,0.157-0.212,0.361-0.199,0.573c0.013,0.211,0.105,0.403,0.263,0.542c0.316,0.284,0.841,0.253,1.119-0.06
					c0.291-0.326,0.264-0.828-0.062-1.119C596.365,339.464,596.178,339.393,595.981,339.393z"/>
			</g>
			<g>
				<line x1="587.1" y1="344.492" x2="607.81" y2="350.662"/>
				
					<rect x="586.65" y="347.342" transform="matrix(0.9584 0.2855 -0.2855 0.9584 124.11 -156.1161)" width="21.609" height="0.471"/>
			</g>
			<g>
				<circle cx="587.1" cy="344.492" r="1.028"/>
				<path d="M587.101,345.757c-0.131,0-0.26-0.021-0.386-0.061c-0.664-0.214-1.033-0.926-0.821-1.588
					c0.208-0.65,0.935-1.027,1.591-0.82c0.32,0.102,0.582,0.322,0.737,0.622c0.156,0.3,0.186,0.643,0.083,0.965
					C588.137,345.402,587.653,345.757,587.101,345.757z M587.098,343.699c-0.347,0-0.649,0.222-0.755,0.553
					c-0.133,0.415,0.099,0.861,0.517,0.995c0.409,0.133,0.865-0.106,0.996-0.515c0.064-0.202,0.046-0.417-0.052-0.605
					c-0.098-0.188-0.262-0.326-0.463-0.39C587.261,343.712,587.18,343.699,587.098,343.699z"/>
			</g>
			<g>
				<line x1="591.828" y1="352.59" x2="607.81" y2="350.662"/>
				
					<rect x="599.583" y="343.577" transform="matrix(0.12 0.9928 -0.9928 0.12 876.9509 -286.0427)" width="0.472" height="16.097"/>
			</g>
			<g>
				<path d="M591.714,351.568c0.565-0.062,1.075,0.342,1.138,0.909c0.062,0.562-0.342,1.074-0.906,1.135
					c-0.562,0.064-1.072-0.339-1.138-0.906C590.744,352.145,591.149,351.632,591.714,351.568z"/>
				<path d="M591.827,353.854c-0.641,0-1.18-0.481-1.254-1.121c-0.038-0.335,0.058-0.665,0.268-0.93
					c0.211-0.265,0.512-0.432,0.847-0.47c0.707-0.077,1.322,0.43,1.398,1.118c0.037,0.336-0.059,0.667-0.271,0.932
					c-0.211,0.263-0.511,0.427-0.844,0.463C591.924,353.853,591.875,353.854,591.827,353.854z M591.828,351.798
					c-0.029,0-0.059,0.002-0.089,0.005c-0.209,0.023-0.397,0.128-0.529,0.294c-0.132,0.167-0.191,0.373-0.168,0.583
					c0.05,0.431,0.435,0.758,0.877,0.698c0.209-0.022,0.396-0.125,0.527-0.289c0.134-0.166,0.194-0.374,0.171-0.585
					C592.573,352.102,592.233,351.798,591.828,351.798z"/>
			</g>
			<g>
				<line x1="594.566" y1="359.163" x2="607.81" y2="350.662"/>
				
					<rect x="600.953" y="347.044" transform="matrix(0.5393 0.8421 -0.8421 0.5393 575.8531 -342.7607)" width="0.471" height="15.737"/>
			</g>
			<g>
				<path d="M594.045,358.281c0.486-0.29,1.119-0.129,1.408,0.359c0.29,0.488,0.127,1.12-0.363,1.41
					c-0.488,0.287-1.119,0.125-1.409-0.363C593.395,359.199,593.556,358.567,594.045,358.281z"/>
				<path d="M594.569,360.429c-0.445,0-0.864-0.238-1.092-0.621c-0.171-0.292-0.218-0.632-0.134-0.958
					c0.084-0.327,0.291-0.602,0.582-0.771c0.574-0.343,1.389-0.133,1.73,0.442c0.172,0.289,0.221,0.629,0.137,0.956
					c-0.084,0.328-0.291,0.604-0.583,0.777C595.016,360.368,594.794,360.429,594.569,360.429z M594.567,358.373
					c-0.141,0-0.28,0.038-0.401,0.11c-0.184,0.107-0.312,0.279-0.365,0.484c-0.054,0.205-0.023,0.418,0.083,0.601
					c0.215,0.36,0.723,0.493,1.087,0.279c0.183-0.108,0.312-0.282,0.365-0.488c0.053-0.204,0.022-0.417-0.086-0.599
					C595.108,358.521,594.847,358.373,594.567,358.373z"/>
			</g>
			<g>
				<line x1="594.955" y1="368.695" x2="607.81" y2="350.662"/>
				
					<rect x="601.146" y="348.606" transform="matrix(0.8151 0.5793 -0.5793 0.8151 319.5327 -281.8743)" width="0.472" height="22.146"/>
			</g>
			<g>
				<circle cx="594.954" cy="368.695" r="1.028"/>
				<path d="M594.954,369.959c-0.263,0-0.516-0.08-0.73-0.232c-0.569-0.404-0.703-1.195-0.301-1.764
					c0.386-0.546,1.209-0.691,1.761-0.303c0.569,0.406,0.703,1.198,0.301,1.767C595.75,369.76,595.365,369.959,594.954,369.959z
					 M594.955,367.9c-0.258,0-0.5,0.125-0.647,0.335c-0.253,0.356-0.168,0.853,0.188,1.106c0.346,0.242,0.863,0.153,1.104-0.188
					c0.253-0.357,0.168-0.854-0.188-1.11C595.277,367.95,595.119,367.9,594.955,367.9z"/>
			</g>
			<g>
				<line x1="604.838" y1="366.221" x2="607.81" y2="350.662"/>
				
					<rect x="606.088" y="350.521" transform="matrix(0.9824 0.1865 -0.1865 0.9824 77.5065 -106.8124)" width="0.471" height="15.84"/>
			</g>
			<g>
				<path d="M603.832,366.019c0.107-0.555,0.651-0.921,1.207-0.809c0.557,0.11,0.92,0.653,0.811,1.209
					c-0.11,0.555-0.653,0.918-1.209,0.809C604.084,367.117,603.719,366.577,603.832,366.019z"/>
				<path d="M604.84,367.482c-0.081,0-0.163-0.008-0.245-0.023c-0.333-0.066-0.62-0.258-0.808-0.54
					c-0.188-0.28-0.253-0.617-0.187-0.947c0.13-0.669,0.784-1.131,1.485-0.993c0.683,0.136,1.13,0.803,0.995,1.486
					C605.964,367.055,605.441,367.482,604.84,367.482z M604.837,365.426c-0.376,0-0.702,0.268-0.773,0.638
					c-0.042,0.208-0.001,0.419,0.116,0.594c0.117,0.177,0.298,0.298,0.507,0.339c0.429,0.086,0.849-0.203,0.932-0.623
					c0.085-0.429-0.196-0.847-0.625-0.932C604.94,365.431,604.889,365.426,604.837,365.426z"/>
			</g>
			<g>
				<line x1="611.155" y1="366.221" x2="607.81" y2="350.662"/>
				
					<rect x="601.525" y="358.206" transform="matrix(0.2102 0.9777 -0.9777 0.2102 831.7797 -312.7761)" width="15.914" height="0.472"/>
			</g>
			<g>
				<path d="M610.154,366.449c-0.128-0.556,0.219-1.107,0.773-1.232c0.551-0.126,1.104,0.22,1.231,0.771
					c0.126,0.556-0.22,1.107-0.772,1.232C610.832,367.346,610.281,367.001,610.154,366.449z"/>
				<path d="M611.158,367.482c-0.594,0-1.101-0.403-1.233-0.98c-0.076-0.33-0.02-0.67,0.161-0.957c0.18-0.285,0.46-0.483,0.79-0.559
					c0.663-0.148,1.36,0.29,1.513,0.949c0.075,0.33,0.018,0.67-0.161,0.956c-0.18,0.286-0.46,0.484-0.789,0.559
					C611.346,367.472,611.252,367.482,611.158,367.482z M611.156,365.427c-0.059,0-0.118,0.007-0.176,0.02
					c-0.207,0.047-0.383,0.171-0.495,0.35c-0.113,0.18-0.149,0.393-0.102,0.601c0.097,0.418,0.52,0.695,0.951,0.594
					c0.205-0.046,0.381-0.17,0.493-0.35s0.148-0.393,0.102-0.601C611.848,365.686,611.522,365.427,611.156,365.427z"/>
			</g>
			<g>
				<line x1="621.309" y1="367.667" x2="607.81" y2="350.662"/>
				
					<rect x="603.703" y="358.929" transform="matrix(0.6217 0.7832 -0.7832 0.6217 513.7648 -345.479)" width="21.712" height="0.471"/>
			</g>
			<g>
				<path d="M620.487,368.286c-0.343-0.455-0.253-1.099,0.202-1.44c0.453-0.342,1.098-0.253,1.439,0.198
					c0.342,0.455,0.252,1.102-0.201,1.44C621.473,368.829,620.828,368.737,620.487,368.286z"/>
				<path d="M621.307,368.93c-0.399,0-0.767-0.183-1.008-0.501c-0.204-0.271-0.29-0.605-0.243-0.939
					c0.048-0.334,0.223-0.629,0.492-0.832c0.541-0.407,1.361-0.294,1.769,0.244c0.205,0.272,0.291,0.607,0.243,0.943
					c-0.048,0.334-0.223,0.628-0.49,0.828C621.848,368.841,621.584,368.93,621.307,368.93z M621.31,366.873
					c-0.174,0-0.339,0.056-0.479,0.161c-0.169,0.127-0.278,0.312-0.309,0.521c-0.029,0.21,0.025,0.419,0.153,0.59
					c0.255,0.338,0.771,0.409,1.109,0.152c0.169-0.127,0.277-0.311,0.308-0.519c0.03-0.212-0.024-0.422-0.152-0.593
					C621.79,366.987,621.561,366.873,621.31,366.873z"/>
			</g>
			<g>
				<line x1="621.998" y1="358.477" x2="607.81" y2="350.662"/>
				
					<rect x="606.805" y="354.334" transform="matrix(0.8759 0.4824 -0.4824 0.8759 247.3433 -252.6583)" width="16.198" height="0.47"/>
			</g>
			<g>
				<path d="M621.5,359.376c-0.497-0.274-0.678-0.899-0.404-1.397c0.275-0.494,0.898-0.677,1.398-0.405
					c0.497,0.277,0.678,0.899,0.404,1.397C622.625,359.471,621.998,359.65,621.5,359.376z"/>
				<path d="M621.997,359.74c-0.213,0-0.424-0.055-0.611-0.158c-0.609-0.336-0.832-1.106-0.497-1.717
					c0.328-0.586,1.125-0.823,1.718-0.499c0.609,0.34,0.832,1.11,0.499,1.718C622.884,359.488,622.459,359.74,621.997,359.74z
					 M622.001,357.684c-0.29,0-0.559,0.156-0.699,0.41c-0.21,0.382-0.07,0.865,0.312,1.076c0.374,0.205,0.875,0.058,1.077-0.312
					c0.21-0.382,0.069-0.865-0.312-1.078C622.265,357.717,622.133,357.684,622.001,357.684z"/>
			</g>
			<g>
				<line x1="624.294" y1="351.767" x2="607.81" y2="350.662"/>
				
					<rect x="607.791" y="350.978" transform="matrix(0.9978 0.0669 -0.0669 0.9978 24.8577 -40.3989)" width="16.521" height="0.472"/>
			</g>
			<g>
				<path d="M624.209,352.789c-0.564-0.049-0.988-0.544-0.94-1.108c0.049-0.567,0.545-0.988,1.11-0.942
					c0.566,0.046,0.989,0.546,0.94,1.11C625.273,352.413,624.775,352.838,624.209,352.789z"/>
				<path d="M624.298,353.028c-0.036,0-0.072-0.001-0.109-0.004c-0.695-0.061-1.214-0.672-1.155-1.363
					c0.06-0.687,0.661-1.214,1.365-1.158c0.337,0.027,0.643,0.186,0.862,0.444c0.218,0.259,0.322,0.586,0.294,0.922
					C625.501,352.519,624.949,353.028,624.298,353.028z M624.295,350.971c-0.409,0-0.756,0.32-0.791,0.73
					c-0.037,0.433,0.288,0.815,0.726,0.853l0.068,0.003c0.408,0,0.753-0.319,0.786-0.728c0.019-0.211-0.047-0.415-0.184-0.577
					c-0.138-0.163-0.329-0.262-0.541-0.278L624.295,350.971z"/>
			</g>
			<g>
				<line x1="628.344" y1="343.699" x2="607.81" y2="350.662"/>
				
					<rect x="617.84" y="336.339" transform="matrix(0.3224 0.9466 -0.9466 0.3224 747.4354 -349.8268)" width="0.472" height="21.683"/>
			</g>
			<g>
				<circle cx="628.344" cy="343.699" r="1.028"/>
				<path d="M628.347,344.962c-0.537,0-1.018-0.34-1.195-0.847c-0.23-0.654,0.115-1.376,0.772-1.609
					c0.646-0.228,1.388,0.133,1.615,0.772c0.229,0.659-0.119,1.382-0.776,1.613C628.628,344.938,628.488,344.962,628.347,344.962z
					 M628.344,342.905c-0.089,0-0.177,0.016-0.263,0.046c-0.412,0.146-0.63,0.598-0.484,1.008c0.14,0.401,0.603,0.629,1.01,0.487
					c0.413-0.145,0.632-0.599,0.487-1.011C628.981,343.119,628.681,342.905,628.344,342.905z"/>
			</g>
			<g>
				<circle cx="613.916" cy="336.263" r="1.221"/>
				<path d="M613.915,337.719c-0.803,0-1.456-0.653-1.456-1.456s0.653-1.455,1.456-1.455c0.804,0,1.457,0.652,1.457,1.455
					S614.719,337.719,613.915,337.719z M613.915,335.278c-0.543,0-0.985,0.441-0.985,0.984s0.442,0.985,0.985,0.985
					c0.544,0,0.986-0.442,0.986-0.985S614.459,335.278,613.915,335.278z"/>
			</g>
			<g>
				<line x1="607.81" y1="350.662" x2="619.443" y2="339.54"/>
				
					<rect x="613.39" y="337.054" transform="matrix(0.6904 0.7234 -0.7234 0.6904 439.6558 -337.0766)" width="0.472" height="16.095"/>
			</g>
			<g>
				<circle cx="619.444" cy="339.542" r="1.222"/>
				<path d="M619.444,341c-0.199,0-0.394-0.041-0.577-0.121c-0.356-0.152-0.633-0.436-0.777-0.798s-0.139-0.759,0.016-1.117
					c0.309-0.718,1.193-1.075,1.914-0.76c0.356,0.152,0.633,0.436,0.777,0.797c0.145,0.362,0.14,0.76-0.015,1.117
					C620.552,340.653,620.026,341,619.444,341z M619.442,338.555c-0.394,0-0.748,0.234-0.903,0.596
					c-0.104,0.243-0.108,0.512-0.011,0.757c0.098,0.244,0.284,0.436,0.525,0.539c0.494,0.216,1.087-0.029,1.295-0.514
					c0.104-0.243,0.108-0.512,0.01-0.757c-0.098-0.244-0.284-0.436-0.525-0.539C619.708,338.582,619.576,338.555,619.442,338.555z"
					/>
			</g>
		</g>
	</g>
</g>
</svg>
