<?xml version="1.0" encoding="utf-8"?>
<!-- Generator: Adobe Illustrator 15.0.0, SVG Export Plug-In . SVG Version: 6.00 Build 0)  -->
<!DOCTYPE svg PUBLIC "-//W3C//DTD SVG 1.1//EN" "http://www.w3.org/Graphics/SVG/1.1/DTD/svg11.dtd">
<svg version="1.1" id="Layer_1" xmlns="http://www.w3.org/2000/svg" xmlns:xlink="http://www.w3.org/1999/xlink" x="0px" y="0px"
	 width="185.5px" height="190px" viewBox="0 0 185.5 190" enable-background="new 0 0 185.5 190" xml:space="preserve">
<g>
	<g>
		<path fill="#FFFFFF" stroke="#000000" stroke-miterlimit="10" d="M93.901,155.244c-31.235,0-56.648-25.412-56.648-56.65
			c0-31.237,25.413-56.65,56.648-56.65c31.238,0,56.649,25.413,56.649,56.65C150.551,129.832,125.14,155.244,93.901,155.244z"/>
		<path fill="#FFFFFF" stroke="#000000" stroke-width="1.0837" stroke-miterlimit="10" d="M164.848,158.4l-22.708-22.707
			c7.925-10.281,12.654-23.146,12.654-37.1c0-33.576-27.316-60.893-60.893-60.893c-33.576,0-60.891,27.316-60.891,60.893
			s27.315,60.894,60.891,60.894c11.596,0,22.442-3.261,31.678-8.91l23.546,23.548c5.128,5.129,12.806,5.77,17.151,1.426
			C170.615,171.211,169.979,163.531,164.848,158.4z"/>
	</g>
	<path fill="#FFFFFF" stroke="#000000" stroke-miterlimit="10" d="M144.054,98.594c0,27.699-22.45,50.152-50.152,50.152
		c-27.697,0-50.149-22.453-50.149-50.152c0-27.699,22.452-50.153,50.149-50.153C121.604,48.441,144.054,70.895,144.054,98.594z"/>
	<path fill="#FFFFFF" stroke="#000000" stroke-miterlimit="10" d="M92.891,71.51c0,0-0.176,2.585-1.349,4.641
		c-1.175,2.054-3.936,3.698-4.17,4.815c-0.235,1.115-0.587,3.875-1.408,5.401c-0.824,1.528-1.999,2.526-2.232,3.29
		c-0.234,0.762-0.232,1.056-0.824,1.758c-0.585,0.704-1.995,1.412-2.463,2.937c-0.471,1.529-0.528,2.175-1.232,3.232
		c-0.705,1.057-1.704,2.816-1.763,4.697c-0.058,1.877-1.056,11.861,0,14.15c1.058,2.291,3.934,6.047,6.166,8.104
		c2.23,2.055,4.401,5.049,5.048,7.047c0.646,1.994,2.113,3.992,3.114,3.992c0.997,0,3.229-0.881,2.993-1.998
		c-0.235-1.113-1.645-3.58-1.645-5.34c0-1.764,0.646-2.352,0.822-3.172c0.176-0.824,0.176-1.117,0.411-1.881
		c0.235-0.762,2.175-2.467,2.582-3.582c0.414-1.113,0.941-2.23,2.118-3.23c1.17-0.996,4.167-3.463,4.402-5.459
		s-0.176-7.398,0.643-9.338c0.825-1.936,0.649-2.289,0.882-3.051c0.238-0.766,1.289-1.82,1.528-2.701
		c0.235-0.882,0.706-2.173,0.411-3.055c-0.292-0.88-1.409-2.995-0.706-4.581c0.706-1.584,4.113-5.519,3.643-8.456
		c-0.471-2.935-0.381-3.638,0.043-4.404c0.428-0.762,1.602-1.818,0.428-4.521c-1.174-2.702-1.472-2.642-2.646-2.583
		c-1.173,0.058-2.582-0.822-3.169-1.234c-0.59-0.41-1.819-1.409-3.467-0.469C99.411,67.459,96.882,70.925,92.891,71.51z"/>
	<g>
		<g>
			<path fill="#FFFFFF" stroke="#000000" stroke-miterlimit="10" d="M50.117,48.607c-0.521,0.424-1.364,0.413-1.874-0.025
				L23.039,26.893c-0.509-0.438-0.487-1.129,0.048-1.535l19.564-14.814c0.536-0.406,1.221-0.247,1.522,0.354l14.9,29.683
				c0.302,0.601,0.091,1.397-0.468,1.77L50.117,48.607z"/>
			<path fill="#FFFFFF" stroke="#000000" stroke-miterlimit="10" d="M35.965,65.189c-0.367,0.562-1.209,0.92-1.869,0.795
				l-22.727-4.296c-0.66-0.125-0.986-0.734-0.726-1.353l7.471-17.7c0.262-0.619,0.935-0.824,1.496-0.455l21.306,14.018
				c0.562,0.369,0.686,1.107,0.275,1.639L35.965,65.189z"/>
			<path fill="#FFFFFF" stroke="#000000" stroke-miterlimit="10" d="M68.658,35.839c0.204,0.641,0.889,0.981,1.522,0.757l8.129-2.49
				c0.65-0.17,1.229-0.857,1.288-1.527l2.129-24.368c0.059-0.669-0.438-1.148-1.105-1.065l-19.068,2.4
				c-0.667,0.083-1.045,0.676-0.842,1.317L68.658,35.839z"/>
		</g>
		<g>
			<path fill="#FFFFFF" stroke="#000000" stroke-miterlimit="10" d="M14.312,78.745c0.122-0.601,0.699-0.965,1.301-0.844
				l14.042,2.833c0.577,0.116,0.941,0.695,0.824,1.272L27.856,95.01c-0.117,0.576-0.677,0.969-1.277,0.848l-1.062-0.215
				c-0.601-0.121-0.964-0.699-0.848-1.276l1.98-9.816l-3.973-0.801l-1.613,7.991c-0.115,0.578-0.698,0.964-1.276,0.848l-1.062-0.215
				c-0.576-0.116-0.964-0.699-0.848-1.276l1.612-7.992l-4.734-0.955c-0.602-0.121-0.992-0.682-0.872-1.282L14.312,78.745z"/>
			<path fill="#FFFFFF" stroke="#000000" stroke-miterlimit="10" d="M28.546,104.652c0.405,5.875-1.83,9.404-7.94,9.826
				c-6.109,0.422-8.81-2.77-9.213-8.645c-0.405-5.875,1.83-9.406,7.94-9.826C25.442,95.586,28.142,98.777,28.546,104.652z
				 M19.631,100.332c-3.525,0.242-5.38,1.764-5.138,5.287c0.243,3.525,2.29,4.779,5.814,4.535c3.525-0.242,5.38-1.764,5.137-5.289
				S23.155,100.088,19.631,100.332z"/>
			<path fill="#FFFFFF" stroke="#000000" stroke-miterlimit="10" d="M20.82,122.215l-4.651,1.686
				c-0.554,0.201-1.179-0.072-1.387-0.648l-0.739-2.037c-0.201-0.555,0.095-1.188,0.648-1.389l13.466-4.881
				c0.576-0.209,1.179,0.072,1.38,0.627l3.235,8.926c1.172,3.232,0.188,6.32-2.87,7.428c-2.391,0.867-4.165-0.568-5.419-2.645
				c-0.003,1.027-0.536,1.973-1.61,3.365l-2.408,3.104c-0.447,0.562-0.946,0.568-1.155-0.008l-0.939-2.592
				c-0.2-0.553-0.031-1.467,0.417-2.029l2.212-2.883c0.663-0.867,1.282-1.992,0.776-3.389L20.82,122.215z M27.597,119.758
				l-3.72,1.35l1.669,4.605c0.45,1.24,1.463,2.652,2.881,2.139c1.417-0.514,1.289-2.246,0.84-3.486L27.597,119.758z"/>
			<path fill="#FFFFFF" stroke="#000000" stroke-miterlimit="10" d="M27.756,148.633c-0.359-0.467-0.36-1.24-0.041-1.752
				l6.487-10.107l-8.903,6.854c-0.485,0.373-1.164,0.303-1.538-0.184l-1.265-1.643c-0.374-0.484-0.269-1.16,0.217-1.533
				l11.312-8.707c0.485-0.375,1.165-0.303,1.522,0.164l2.86,3.713c0.373,0.486,0.341,1.254-0.01,1.764l-5.716,8.68l9.854-3.305
				c0.582-0.209,1.332-0.045,1.706,0.441l2.86,3.713c0.358,0.467,0.254,1.143-0.231,1.516l-11.312,8.709
				c-0.485,0.373-1.163,0.301-1.538-0.184l-1.264-1.643c-0.374-0.486-0.27-1.16,0.215-1.535l8.904-6.854l-11.432,3.688
				c-0.576,0.176-1.323-0.021-1.683-0.488L27.756,148.633z"/>
			<path fill="#FFFFFF" stroke="#000000" stroke-miterlimit="10" d="M56.122,152.701c4.871,3.311,6.268,7.248,2.826,12.316
				c-3.441,5.066-7.618,5.221-12.491,1.91c-4.873-3.309-6.269-7.248-2.827-12.316C47.071,149.545,51.249,149.391,56.122,152.701z
				 M47.216,157.049c-1.985,2.922-1.935,5.32,0.988,7.307c2.925,1.986,5.173,1.148,7.159-1.773c1.985-2.924,1.935-5.322-0.989-7.309
				C51.451,153.287,49.201,154.125,47.216,157.049z"/>
			<path fill="#FFFFFF" stroke="#000000" stroke-miterlimit="10" d="M70.7,160.326l2.757,0.961c2.803,0.977,5.238,3.646,4.409,6.025
				c-0.349,1-1.242,0.914-1.53,0.812l-1.29-0.449c-0.623-0.217-1.011-0.676-1.111-1.533c-0.092-0.881-0.812-1.531-1.925-1.918
				l-3.269-1.139c-1.333-0.467-2.074-0.201-2.347,0.578c-0.898,2.58,11.384,5.189,9.36,10.992c-0.93,2.668-3.137,3.994-8.474,2.135
				l-3.291-1.148c-2.803-0.977-5.238-3.646-4.408-6.025c0.349-1,1.241-0.914,1.53-0.812l1.29,0.449
				c0.623,0.217,1.01,0.676,1.11,1.535c0.093,0.879,0.813,1.529,1.926,1.918l3.802,1.324c1.333,0.465,2.074,0.199,2.347-0.578
				c0.898-2.58-11.367-5.234-9.36-10.992C63.156,159.791,65.364,158.467,70.7,160.326z"/>
			<path fill="#FFFFFF" stroke="#000000" stroke-miterlimit="10" d="M81.545,168.057c1.158-3.594,4.518-4.242,7.855-4.064
				l6.186,0.328c0.565,0.029,0.962,0.547,0.932,1.111l-0.761,14.344c-0.03,0.588-0.55,1.033-1.137,1.002l-2.164-0.115
				c-0.612-0.033-1.058-0.527-1.024-1.139l0.153-2.893l-8.16-0.434l-0.931,2.852c-0.196,0.604-0.809,1.043-1.421,1.01l-2.258-0.119
				c-0.611-0.033-0.939-0.521-0.742-1.102L81.545,168.057z M84.443,172.998l7.314,0.387l0.317-5.996l-3.27-0.174
				c-1.481-0.078-2.704,0.752-3.156,2.145L84.443,172.998z"/>
		</g>
		<g>
			<path fill="#FFFFFF" stroke="#000000" stroke-miterlimit="10" d="M107.633,27.857l-7.84-1.104l-0.823,5.856
				c-0.084,0.582-0.639,0.98-1.222,0.897l-2.123-0.3c-0.605-0.085-1.026-0.643-0.944-1.226l1.998-14.182
				c0.087-0.607,0.642-1.005,1.249-0.92l2.122,0.3c0.583,0.082,1.008,0.617,0.922,1.224l-0.724,5.13l7.837,1.106l0.723-5.131
				c0.087-0.606,0.645-1.004,1.225-0.922l2.123,0.3c0.607,0.086,1.031,0.621,0.946,1.227L111.1,34.295
				c-0.082,0.582-0.639,1.004-1.246,0.917l-2.123-0.3c-0.583-0.081-1.007-0.616-0.925-1.2L107.633,27.857z"/>
			<path fill="#FFFFFF" stroke="#000000" stroke-miterlimit="10" d="M118.414,22.055c0.203-0.576,0.823-0.856,1.379-0.659
				l2.022,0.713c0.576,0.205,0.887,0.813,0.683,1.391l-4.773,13.497c-0.196,0.555-0.825,0.856-1.402,0.653l-2.022-0.714
				c-0.555-0.196-0.863-0.804-0.667-1.36L118.414,22.055z"/>
			<path fill="#FFFFFF" stroke="#000000" stroke-miterlimit="10" d="M134.756,28.209c5.773,3.419,6.875,7.107,4.008,11.952
				c-2.866,4.843-6.632,5.653-12.405,2.234l-5.532-3.274c-0.509-0.301-0.692-0.959-0.395-1.465l7.294-12.32
				c0.313-0.527,0.97-0.713,1.498-0.4L134.756,28.209z M130.362,29.386l-5.085,8.594l2.635,1.56c3.63,2.147,5.322,1.454,7.123-1.585
				c1.799-3.04,1.59-4.86-2.037-7.009L130.362,29.386z"/>
			<path fill="#FFFFFF" stroke="#000000" stroke-miterlimit="10" d="M152.697,42.374c4.6,4.891,4.631,8.739,0.53,12.598
				c-4.101,3.857-7.942,3.589-12.541-1.301l-4.406-4.684c-0.403-0.428-0.397-1.112,0.029-1.517l10.435-9.812
				c0.445-0.419,1.127-0.414,1.548,0.032L152.697,42.374z M148.15,42.285l-7.273,6.841l2.097,2.231
				c2.888,3.071,4.712,2.878,7.283,0.457c2.575-2.421,2.879-4.227-0.008-7.299L148.15,42.285z"/>
			<path fill="#FFFFFF" stroke="#000000" stroke-miterlimit="10" d="M168.629,68.351l-0.96,0.507
				c-0.541,0.284-1.188,0.066-1.465-0.455l-4.665-8.855l-2.958,1.559l4.017,7.625c0.275,0.521,0.067,1.189-0.452,1.463l-0.956,0.507
				c-0.521,0.274-1.19,0.067-1.466-0.455l-4.019-7.625l-3.002,1.582l4.657,8.833c0.276,0.521,0.077,1.158-0.442,1.431l-0.979,0.516
				c-0.521,0.275-1.179,0.088-1.465-0.453l-6.159-11.688c-0.285-0.54-0.068-1.187,0.473-1.474l12.668-6.674
				c0.522-0.276,1.168-0.059,1.443,0.461l6.181,11.731C169.355,67.409,169.169,68.065,168.629,68.351z"/>
			<path fill="#FFFFFF" stroke="#000000" stroke-miterlimit="10" d="M155.656,77.646c-0.125-0.576,0.256-1.164,0.831-1.287
				l13.998-3.014c0.576-0.125,1.158,0.233,1.283,0.808l0.714,3.316c0.118,0.553-0.272,1.31-0.726,1.77l-8.993,9.043l10.476-2.257
				c0.575-0.124,1.143,0.26,1.266,0.837l0.416,1.933c0.128,0.6-0.233,1.159-0.832,1.288l-13.998,3.013
				c-0.576,0.125-1.157-0.232-1.289-0.832L158,88.537c-0.128-0.601,0.21-1.371,0.706-1.863l8.31-8.294l-9.646,2.077
				c-0.575,0.123-1.165-0.256-1.288-0.832L155.656,77.646z"/>
		</g>
	</g>
</g>
</svg>
