<svg version="1.1" class="hf-logo" xmlns="http://www.w3.org/2000/svg" xmlns:xlink="http://www.w3.org/1999/xlink" x="0px" y="0px"
	 width="150px" height="150px" viewBox="0 0 250 250" enable-background="new 0 0 250 250" xml:space="preserve" ng-click="test()">


	<defs>
	    <link href="../css/styles.css" type="text/css" rel="stylesheet" 
	          xmlns="http://www.w3.org/1999/xhtml"/>
	</defs>

	<script>
		
	</script>

	<g class="magnify-taiwan">
		<path class="magnify-handle" fill="#010101" d="M229.082,214.419c7.331,7.085,8.242,17.687,2.043,23.678l0,0c-6.211,5.995-17.182,5.111-24.509-1.97
			l-44.659-43.15c-7.333-7.083-8.244-17.686-2.042-23.679l0,0c6.201-5.994,17.18-5.11,24.507,1.973L229.082,214.419z"/>
		<path stroke="#010101" stroke-width="8.4858" d="M127.704,210.062c-44.631,0-80.945-35.083-80.945-78.21
			c0-43.125,36.314-78.208,80.945-78.208c44.637,0,80.948,35.085,80.948,78.208C208.652,174.979,172.344,210.062,127.704,210.062z"/>
		<path fill="#283A82" stroke="#FFFFFF" stroke-width="8.6555" d="M199.37,131.851c0,38.241-32.081,69.238-71.664,69.238
			c-39.576,0-71.659-30.997-71.659-69.238c0-38.239,32.084-69.238,71.659-69.238C167.289,62.612,199.37,93.611,199.37,131.851z"/>
		<path class="taiwan" fill="#08A650" stroke="#FFFFFF" stroke-width="1.6971" stroke-miterlimit="10" d="M126.261,94.461c0,0-0.25,3.569-1.927,6.408
			c-1.676,2.835-5.624,5.105-5.957,6.646c-0.335,1.54-0.839,5.35-2.013,7.457c-1.177,2.109-2.856,3.488-3.189,4.542
			c-0.334,1.051-0.332,1.457-1.177,2.427c-0.836,0.972-2.853,1.95-3.519,4.055c-0.674,2.108-0.757,3.001-1.763,4.46
			c-1.007,1.46-2.435,3.887-2.518,6.483c-0.083,2.594-1.509,16.374,0,19.535c1.512,3.162,5.62,8.352,8.811,11.189
			c3.188,2.836,6.29,6.971,7.213,9.729c0.923,2.754,3.02,5.511,4.45,5.511c1.425,0,4.614-1.215,4.276-2.757
			c-0.335-1.537-2.351-4.944-2.351-7.374c0-2.433,0.923-3.247,1.175-4.381c0.251-1.134,0.251-1.538,0.588-2.596
			c0.334-1.051,3.107-3.404,3.688-4.942c0.594-1.541,1.346-3.08,3.026-4.46c1.671-1.375,5.955-4.782,6.29-7.538
			c0.336-2.754-0.252-10.213,0.918-12.891c1.181-2.674,0.929-3.159,1.262-4.213c0.341-1.058,1.842-2.511,2.183-3.729
			c0.337-1.217,1.01-2.999,0.588-4.216c-0.418-1.214-2.014-4.135-1.01-6.324c1.01-2.188,5.878-7.62,5.207-11.675
			c-0.674-4.052-0.546-5.022,0.062-6.08c0.611-1.052,2.29-2.51,0.611-6.241c-1.679-3.73-2.104-3.647-3.78-3.566
			c-1.678,0.08-3.689-1.135-4.53-1.704c-0.842-0.565-2.598-1.945-4.953-0.647C135.578,88.868,131.966,93.653,126.261,94.461z"/>
	</g>
	<g class="red-accents">
		<path fill="#EC2227" d="M65.144,62.842c-0.745,0.586-1.951,0.57-2.678-0.034L26.45,32.865c-0.728-0.605-0.697-1.559,0.069-2.12
			l27.955-20.452c0.766-0.561,1.745-0.341,2.176,0.489l21.29,40.979c0.432,0.83,0.13,1.929-0.669,2.443L65.144,62.842z"/>
		<path fill="#EC2227" d="M44.92,85.734c-0.526,0.776-1.728,1.27-2.672,1.098L9.774,80.901c-0.943-0.173-1.41-1.013-1.037-1.868
			l10.675-24.436c0.373-0.854,1.336-1.138,2.138-0.627l30.444,19.353c0.803,0.508,0.979,1.528,0.393,2.262L44.92,85.734z"/>
		<path fill="#EC2227" d="M91.636,45.214c0.292,0.885,1.27,1.355,2.174,1.046l11.615-3.438c0.929-0.234,1.757-1.183,1.842-2.108
			l3.042-33.642c0.084-0.922-0.628-1.584-1.581-1.47L81.483,8.916C80.53,9.03,79.99,9.849,80.28,10.733L91.636,45.214z"/>
	</g>
	<g class="hf-text">
		<g class="formosa" >
			<path fill="#010101" d="M13.979,104.449c0.174-0.829,1-1.332,1.859-1.165l20.064,3.911c0.824,0.161,1.345,0.96,1.177,1.756
				l-3.748,17.952c-0.167,0.797-0.967,1.339-1.824,1.172l-1.52-0.297c-0.857-0.168-1.377-0.966-1.211-1.763l2.829-13.55l-5.676-1.106
				l-2.305,11.033c-0.166,0.797-0.999,1.331-1.825,1.17l-1.518-0.297c-0.824-0.16-1.377-0.965-1.211-1.761l2.304-11.034l-6.766-1.318
				c-0.859-0.167-1.417-0.941-1.246-1.77L13.979,104.449z"/>
			<path fill="#010101" d="M34.318,140.215c0.579,8.112-2.614,12.986-11.345,13.568c-8.73,0.581-12.588-3.825-13.165-11.938
				c-0.578-8.108,2.615-12.981,11.346-13.564C29.885,127.7,33.74,132.105,34.318,140.215z M21.581,134.252
				c-5.038,0.334-7.687,2.435-7.341,7.301c0.347,4.865,3.272,6.597,8.308,6.26c5.036-0.334,7.686-2.436,7.339-7.302
				C29.539,135.644,26.617,133.915,21.581,134.252z"/>
			<path fill="#010101" d="M23.279,164.46l-6.647,2.33c-0.791,0.276-1.684-0.1-1.981-0.896l-1.057-2.813
				c-0.287-0.767,0.136-1.64,0.928-1.917l19.241-6.739c0.822-0.287,1.683,0.101,1.971,0.866l4.623,12.321
				c1.676,4.464,0.268,8.729-4.1,10.258c-3.417,1.195-5.951-0.786-7.744-3.652c-0.004,1.418-0.767,2.724-2.302,4.645l-3.44,4.285
				c-0.639,0.777-1.352,0.785-1.651-0.01l-1.343-3.58c-0.286-0.762-0.045-2.023,0.595-2.802l3.161-3.978
				c0.95-1.196,1.834-2.751,1.108-4.678L23.279,164.46z M32.963,161.071l-5.316,1.862l2.385,6.357
				c0.644,1.713,2.091,3.663,4.117,2.955c2.025-0.712,1.843-3.103,1.201-4.814L32.963,161.071z"/>
			<path fill="#010101" d="M33.19,200.933c-0.513-0.644-0.515-1.711-0.058-2.417l9.271-13.954l-12.723,9.463
				c-0.694,0.515-1.664,0.416-2.198-0.255l-1.808-2.269c-0.535-0.67-0.384-1.601,0.31-2.117l16.164-12.021
				c0.694-0.516,1.665-0.42,2.177,0.226l4.086,5.128c0.534,0.668,0.488,1.731-0.014,2.435l-8.166,11.981l14.079-4.56
				c0.832-0.291,1.903-0.063,2.438,0.606l4.086,5.128c0.511,0.645,0.362,1.577-0.33,2.093l-16.164,12.022
				c-0.693,0.515-1.662,0.415-2.198-0.254l-1.806-2.27c-0.535-0.668-0.385-1.602,0.307-2.117l12.724-9.463l-16.335,5.092
				c-0.823,0.244-1.892-0.028-2.405-0.673L33.19,200.933z"/>
			<path fill="#010101" d="M73.723,206.552c6.961,4.569,8.956,10.006,4.04,17.004c-4.917,6.993-10.887,7.207-17.851,2.637
				c-6.963-4.569-8.958-10.008-4.04-17.005C60.791,202.192,66.759,201.979,73.723,206.552z M60.997,212.551
				c-2.837,4.037-2.764,7.348,1.411,10.091c4.18,2.739,7.392,1.586,10.23-2.448c2.837-4.038,2.766-7.35-1.413-10.092
				C67.048,207.361,63.833,208.517,60.997,212.551z"/>
			<path fill="#010101" d="M94.555,217.079l3.938,1.327c4.005,1.349,7.485,5.032,6.302,8.317c-0.5,1.38-1.775,1.262-2.188,1.121
				l-1.844-0.621c-0.889-0.298-1.444-0.934-1.586-2.116c-0.131-1.216-1.162-2.112-2.75-2.648l-4.671-1.572
				c-1.905-0.643-2.966-0.278-3.354,0.797c-1.283,3.564,16.267,7.164,13.375,15.176c-1.328,3.686-4.481,5.514-12.107,2.948
				l-4.703-1.586c-4.004-1.347-7.486-5.032-6.299-8.315c0.499-1.382,1.773-1.262,2.187-1.121l1.843,0.619
				c0.89,0.3,1.443,0.935,1.585,2.118c0.133,1.215,1.162,2.111,2.752,2.648L92.467,236c1.905,0.642,2.965,0.273,3.353-0.801
				c1.284-3.56-16.242-7.226-13.375-15.174C83.773,216.339,86.929,214.509,94.555,217.079z"/>
			<path fill="#010101" d="M110.049,227.751c1.655-4.965,6.455-5.857,11.224-5.609l8.838,0.449c0.808,0.042,1.374,0.756,1.333,1.535
				l-1.089,19.803c-0.042,0.812-0.785,1.426-1.625,1.383l-3.091-0.157c-0.875-0.046-1.513-0.73-1.463-1.572l0.218-3.996
				l-11.659-0.597l-1.33,3.938c-0.282,0.831-1.156,1.438-2.031,1.393l-3.227-0.164c-0.873-0.047-1.341-0.721-1.061-1.521
				L110.049,227.751z M114.192,234.571l10.451,0.537l0.453-8.28l-4.671-0.239c-2.117-0.108-3.865,1.039-4.511,2.96L114.192,234.571z"
				/>
		</g>
		<g class="hidden">
			<path fill="#010101" d="M147.327,34.195l-11.203-1.524l-1.175,8.084c-0.119,0.804-0.914,1.353-1.748,1.239l-3.033-0.414
				c-0.865-0.119-1.465-0.888-1.347-1.693l2.854-19.579c0.123-0.838,0.916-1.387,1.783-1.27l3.033,0.415
				c0.832,0.113,1.44,0.851,1.317,1.689l-1.036,7.083l11.198,1.527l1.034-7.084c0.123-0.836,0.921-1.386,1.751-1.272l3.034,0.414
				c0.867,0.119,1.473,0.858,1.35,1.694l-2.86,19.581c-0.117,0.804-0.912,1.385-1.781,1.266l-3.034-0.415
				c-0.83-0.111-1.435-0.85-1.318-1.656L147.327,34.195z"/>
			<path fill="#010101" d="M162.731,26.186c0.291-0.796,1.178-1.182,1.971-0.91l2.889,0.984c0.824,0.283,1.269,1.123,0.977,1.92
				l-6.82,18.634c-0.279,0.766-1.178,1.181-2.002,0.901l-2.892-0.985c-0.791-0.271-1.232-1.111-0.95-1.877L162.731,26.186z"/>
			<path fill="#010101" d="M186.083,34.681c8.25,4.721,9.823,9.812,5.726,16.501c-4.093,6.686-9.473,7.805-17.725,3.084l-7.904-4.52
				c-0.727-0.416-0.988-1.324-0.564-2.021l10.424-17.01c0.446-0.727,1.386-0.983,2.141-0.552L186.083,34.681z M179.804,36.306
				l-7.265,11.865l3.765,2.155c5.188,2.963,7.605,2.007,10.179-2.188c2.57-4.198,2.271-6.709-2.911-9.677L179.804,36.306z"/>
			<path fill="#010101" d="M211.72,54.236c6.572,6.753,6.617,12.065,0.758,17.394c-5.861,5.325-11.35,4.954-17.922-1.796
				l-6.294-6.467c-0.577-0.591-0.569-1.535,0.04-2.094l14.911-13.547c0.637-0.578,1.611-0.571,2.213,0.044L211.72,54.236z
				 M205.223,54.115l-10.394,9.444l2.997,3.079c4.127,4.24,6.732,3.974,10.407,0.631c3.68-3.342,4.115-5.835-0.012-10.076
				L205.223,54.115z"/>
			<path fill="#010101" d="M234.484,90.1l-1.371,0.7c-0.774,0.393-1.699,0.091-2.093-0.628l-6.666-12.225l-4.228,2.152l5.74,10.527
				c0.392,0.72,0.096,1.642-0.646,2.021l-1.366,0.7c-0.744,0.377-1.7,0.092-2.096-0.628l-5.742-10.527l-4.29,2.184l6.656,12.195
				c0.395,0.719,0.109,1.598-0.633,1.974l-1.397,0.713c-0.746,0.379-1.686,0.121-2.094-0.626l-8.803-16.136
				c-0.405-0.745-0.097-1.638,0.677-2.034l18.102-9.214c0.746-0.382,1.669-0.082,2.061,0.637l8.834,16.195
				C235.523,88.8,235.257,89.706,234.484,90.1z"/>
			<path fill="#010101" d="M215.947,102.932c-0.179-0.794,0.367-1.607,1.188-1.777l20.003-4.161c0.821-0.172,1.653,0.321,1.831,1.115
				l1.021,4.578c0.168,0.764-0.389,1.81-1.039,2.445l-12.848,12.484l14.969-3.117c0.822-0.171,1.634,0.359,1.809,1.156l0.594,2.669
				c0.184,0.828-0.333,1.6-1.186,1.777l-20.004,4.161c-0.822,0.172-1.654-0.32-1.842-1.149l-1.147-5.146
				c-0.181-0.83,0.301-1.893,1.009-2.572l11.875-11.45l-13.782,2.867c-0.823,0.17-1.664-0.353-1.841-1.148L215.947,102.932z"/>
		</g>
	</g>


</svg>
